<?xml version="1.0" encoding="utf-8" standalone="no"?>
<!DOCTYPE svg PUBLIC "-//W3C//DTD SVG 1.1//EN"
  "http://www.w3.org/Graphics/SVG/1.1/DTD/svg11.dtd">
<!-- Created with matplotlib (http://matplotlib.org/) -->
<svg height="288pt" version="1.1" viewBox="0 0 432 288" width="432pt" xmlns="http://www.w3.org/2000/svg" xmlns:xlink="http://www.w3.org/1999/xlink">
 <defs>
  <style type="text/css">
*{stroke-linecap:butt;stroke-linejoin:round;}
  </style>
 </defs>
 <g id="figure_1">
  <g id="patch_1">
   <path d="
M0 288
L432 288
L432 0
L0 0
z
" style="fill:#ffffff;"/>
  </g>
  <g id="axes_1">
   <g id="patch_2">
    <path d="
M109.8 252
L333 252
L333 28.8
L109.8 28.8
z
" style="fill:#ffffff;"/>
   </g>
   <g id="line2d_1">
    <path clip-path="url(#pf805d1d729)" d="
M222.888 140.4
L222.748 139.667
L222.342 139.026
L221.714 138.562
L220.93 138.342
L220.29 138.363
L219.652 138.556
L219.056 138.917
L218.544 139.437
L218.153 140.094
L217.916 140.86
L217.86 141.698
L218.003 142.567
L218.351 143.421
L218.903 144.211
L219.646 144.893
L220.557 145.42
L221.602 145.756
L222.74 145.869
L223.922 145.736
L225.096 145.345
L226.205 144.698
L227.194 143.805
L228.009 142.691
L228.602 141.39
L228.931 139.95
L228.966 138.423
L228.687 136.872
L228.086 135.361
L227.51 134.409
L226.798 133.525
L225.96 132.727
L225.006 132.034
L223.95 131.461
L222.806 131.025
L221.593 130.737
L220.331 130.608
L219.04 130.646
L217.742 130.857
L216.462 131.241
L215.222 131.798
L214.046 132.523
L212.956 133.41
L211.975 134.447
L211.124 135.621
L210.421 136.915
L209.884 138.311
L209.526 139.787
L209.359 141.319
L209.392 142.883
L209.63 144.452
L210.075 145.999
L210.724 147.497
L211.573 148.919
L212.612 150.238
L213.828 151.428
L215.205 152.466
L216.724 153.33
L218.363 154.001
L220.097 154.462
L221.898 154.7
L223.738 154.705
L225.586 154.472
L227.411 153.998
L229.183 153.286
L230.868 152.342
L232.438 151.176
L233.863 149.804
L235.115 148.242
L236.17 146.514
L237.005 144.644
L237.601 142.661
L237.944 140.595
L238.021 138.479
L237.825 136.348
L237.355 134.236
L236.612 132.179
L235.602 130.214
L234.337 128.373
L232.833 126.691
L231.11 125.199
L229.191 123.925
L227.105 122.896
L224.883 122.132
L222.56 121.652
L220.171 121.469
L217.755 121.593
L215.351 122.026
L213 122.768
L210.74 123.813
L208.612 125.147
L206.652 126.756
L204.897 128.618
L203.378 130.706
L202.124 132.99
L201.162 135.436
L200.512 138.008
L200.19 140.663
L200.208 143.362
L200.57 146.06
L201.278 148.713
L202.324 151.276
L203.698 153.706
L205.383 155.962
L207.356 158.003
L209.589 159.792
L212.051 161.297
L214.705 162.487
L217.511 163.339
L220.425 163.833
L223.401 163.955
L226.392 163.698
L229.35 163.06
L232.225 162.045
L234.969 160.664
L237.537 158.934
L239.882 156.879
L241.965 154.525
L243.746 151.908
L245.193 149.066
L246.277 146.042
L246.976 142.883
L247.272 139.637
L247.154 136.356
L246.62 133.094
L245.671 129.902
L244.317 126.835
L242.574 123.943
L240.466 121.276
L238.021 118.88
L235.275 116.798
L232.267 115.067
L229.044 113.721
L227.366 113.201
L225.654 112.786
L223.912 112.48
L222.149 112.283
L220.372 112.199
L218.586 112.227
L216.8 112.368
L215.021 112.622
L213.256 112.99
L211.512 113.47
L209.796 114.062
L208.115 114.763
L206.477 115.571
L204.889 116.484
L203.356 117.499
L201.886 118.613
L200.485 119.821
L199.158 121.119
L197.913 122.503
L196.753 123.967
L195.686 125.506
L194.714 127.115
L193.844 128.788
L193.078 130.517
L192.422 132.296
L191.877 134.12
L191.447 135.979
L191.135 137.868
L190.942 139.779
L190.87 141.704
L190.92 143.635
L191.092 145.566
L191.387 147.487
L191.804 149.392
L192.342 151.272
L192.999 153.12
L193.775 154.928
L194.665 156.688
L195.668 158.394
L196.78 160.039
L197.997 161.614
L199.316 163.113
L200.73 164.531
L202.235 165.86
L203.826 167.095
L205.497 168.231
L207.241 169.262
L209.052 170.183
L210.923 170.99
L212.847 171.68
L214.816 172.248
L216.822 172.692
L218.859 173.01
L220.917 173.199
L222.989 173.257
L225.067 173.185
L227.141 172.981
L229.205 172.645
L231.248 172.179
L233.264 171.583
L235.244 170.858
L237.179 170.008
L239.063 169.035
L240.886 167.942
L242.641 166.732
L244.321 165.411
L245.918 163.982
L247.426 162.451
L248.839 160.823
L250.149 159.105
L251.352 157.303
L252.441 155.423
L253.413 153.473
L254.261 151.461
L254.983 149.393
L255.575 147.278
L256.033 145.124
L256.355 142.94
L256.539 140.734
L256.584 138.515
L256.488 136.292
L256.252 134.073
L255.875 131.868
L255.358 129.685
L254.703 127.534
L253.911 125.422
L252.986 123.36
L251.929 121.355
L250.745 119.415
L249.437 117.55
L248.011 115.766
L246.471 114.071
L244.823 112.472
L243.073 110.977
L241.228 109.592
L239.294 108.322
L237.278 107.175
L235.189 106.154
L233.034 105.265
L230.822 104.511
L228.561 103.897
L226.26 103.426
L223.929 103.1
L221.575 102.921
L219.209 102.891
L216.84 103.011
L214.477 103.28
L212.13 103.699
L209.809 104.267
L207.522 104.981
L205.28 105.841
L203.091 106.842
L200.964 107.983
L198.908 109.258
L196.932 110.664
L195.045 112.196
L193.253 113.847
L191.565 115.612
L189.987 117.485
L188.528 119.458
L187.192 121.525
L185.987 123.676
L184.917 125.905
L183.988 128.202
L183.204 130.558
L182.568 132.965
L182.084 135.413
L181.755 137.893
L181.582 140.394
L181.567 142.907
L181.711 145.422
L182.014 147.929
L182.476 150.417
L183.095 152.877
L183.87 155.298
L184.797 157.672
L185.876 159.987
L187.1 162.235
L188.468 164.407
L189.973 166.492
L191.61 168.484
L193.373 170.372
L195.256 172.149
L197.252 173.808
L199.353 175.341
L201.552 176.742
L203.84 178.004
L206.208 179.122
L208.648 180.091
L211.149 180.906
L213.702 181.563
L216.298 182.059
L218.925 182.391
L221.574 182.557
L224.234 182.556
L226.894 182.386
L229.544 182.049
L232.174 181.544
L234.772 180.873
L237.329 180.038
L239.833 179.041
L242.274 177.886
L244.643 176.576
L246.93 175.116
L249.125 173.512
L251.219 171.769
L253.203 169.893
L255.069 167.892
L256.809 165.772
L258.415 163.542
L259.881 161.211
L261.2 158.786
L262.365 156.278
L263.373 153.696
L264.217 151.05
L264.895 148.351
L265.402 145.608
L265.736 142.833
L265.895 140.037
L265.877 137.23
L265.682 134.424
L265.31 131.63
L264.761 128.859
L264.037 126.123
L263.141 123.432
L262.074 120.798
L260.841 118.23
L259.446 115.741
L257.894 113.339
L256.189 111.035
L254.34 108.839
L252.351 106.759
L250.231 104.805
L247.988 102.985
L245.629 101.306
L243.165 99.7759
L240.603 98.4014
L237.955 97.1886
L235.231 96.1429
L232.44 95.2692
L229.594 94.5717
L226.704 94.0539
L223.781 93.7185
L220.837 93.5677
L217.883 93.6027
L214.932 93.8241
L211.994 94.2319
L209.083 94.8251
L206.209 95.6021
L203.384 96.5605
L200.619 97.6972
L197.926 99.0084
L195.317 100.49
L192.8 102.135
L190.388 103.94
L188.09 105.897
L185.915 107.999
L183.873 110.238
L181.973 112.605
L180.222 115.093
L178.628 117.691
L177.199 120.389
L175.939 123.178
L174.856 126.045
L173.954 128.981
L173.237 131.974
L172.709 135.011
L172.373 138.082
L172.231 141.174
L172.284 144.274
L172.532 147.371
L172.976 150.451
L173.615 153.504
L174.445 156.515
L175.466 159.474
L176.674 162.369
L178.064 165.186
L179.631 167.916
L181.371 170.546
L183.277 173.067
L185.341 175.466
L187.556 177.735
L189.915 179.864
L192.407 181.844
L195.024 183.667
L197.756 185.324
L200.591 186.808
L203.52 188.113
L206.531 189.233
L209.612 190.163
L212.751 190.899
L215.936 191.436
L219.155 191.772
L222.394 191.905
L225.641 191.834
L228.883 191.558
L232.107 191.077
L235.3 190.393
L238.449 189.507
L241.541 188.424
L244.565 187.145
L247.508 185.675
L250.357 184.021
L253.101 182.187
L255.729 180.18
L258.23 178.008
L260.593 175.678
L262.808 173.2
L264.867 170.583
L266.76 167.836
L268.48 164.97
L270.018 161.997
L271.369 158.927
L272.525 155.773
L273.482 152.547
L274.236 149.261
L274.782 145.928
L275.117 142.562
L275.241 139.175
L275.15 135.782
L274.845 132.395
L274.327 129.028
L273.597 125.695
L272.656 122.408
L271.509 119.182
L270.158 116.029
L268.609 112.962
L266.867 109.994
L264.938 107.137
L262.829 104.402
L260.548 101.8
L258.104 99.3437
L255.506 97.0419
L252.763 94.9047
L249.887 92.9411
L246.887 91.1596
L243.776 89.5678
L240.565 88.1727
L237.268 86.9806
L233.896 85.9968
L230.463 85.226
L226.983 84.6719
L223.469 84.3375
L219.934 84.2249
L216.394 84.3352
L212.862 84.6688
L209.353 85.225
L205.879 86.0023
L202.456 86.9985
L199.097 88.2102
L195.815 89.6334
L192.624 91.2631
L189.537 93.0935
L186.566 95.1179
L183.725 97.3289
L181.023 99.7184
L178.474 102.277
L176.086 104.996
L173.871 107.865
L171.838 110.872
L169.995 114.006
L168.35 117.255
L166.911 120.607
L165.684 124.048
L164.674 127.565
L163.887 131.145
L163.325 134.773
L162.993 138.435
L162.891 142.117
L163.022 145.803
L163.385 149.48
L163.98 153.132
L164.805 156.746
L165.857 160.306
L167.134 163.798
L168.63 167.209
L170.341 170.523
L172.26 173.729
L174.38 176.812
L176.694 179.76
L179.193 182.561
L181.867 185.203
L184.707 187.675
L187.701 189.968
L190.839 192.07
L194.108 193.974
L197.496 195.671
L200.989 197.153
L204.574 198.415
L208.237 199.45
L211.964 200.254
L215.739 200.822
L219.549 201.152
L223.378 201.242
L227.211 201.09
L231.033 200.697
L234.828 200.062
L238.581 199.189
L242.277 198.08
L245.902 196.738
L249.441 195.168
L252.879 193.376
L256.202 191.368
L259.397 189.151
L262.451 186.734
L265.351 184.125
L268.086 181.335
L270.643 178.374
L273.012 175.253
L275.183 171.985
L277.147 168.58
L278.896 165.054
L280.421 161.42
L281.716 157.691
L282.776 153.882
L283.595 150.008
L284.17 146.084
L284.497 142.127
L284.574 138.15
L284.4 134.171
L283.976 130.205
L283.302 126.267
L282.38 122.375
L281.213 118.542
L279.805 114.785
L278.161 111.118
L276.287 107.557
L274.189 104.116
L271.875 100.809
L269.354 97.6497
L266.636 94.6509
L263.729 91.8251
L260.647 89.1841
L257.399 86.7387
L253.999 84.4994
L250.46 82.4757
L246.795 80.6761
L243.018 79.1085
L239.145 77.7799
L235.19 76.6961
L231.169 75.8622
L227.098 75.2822
L222.992 74.9592
L218.869 74.8951
L214.743 75.091
L210.632 75.5468
L206.553 76.2615
L202.52 77.2329
L198.552 78.4579
L194.662 79.9324
L190.868 81.6512
L187.184 83.6081
L183.626 85.7961
L180.208 88.2072
L176.943 90.8322
L173.846 93.6615
L170.93 96.6844
L168.205 99.8893
L165.684 103.264
L163.377 106.796
L161.294 110.471
L159.444 114.275
L157.835 118.193
L156.474 122.211
L155.367 126.312
L154.519 130.48
L153.934 134.699
L153.615 138.953
L153.565 143.223
L153.784 147.495
L154.272 151.75
L155.028 155.972
L156.049 160.144
L157.333 164.248
L158.874 168.269
L160.669 172.191
L162.709 175.997
L164.987 179.672
L167.496 183.201
L170.226 186.57
L173.167 189.765
L176.306 192.772
L179.634 195.58
L183.136 198.176
L186.8 200.55
L190.61 202.691
L194.554 204.591
L198.614 206.241
L202.776 207.634
L207.024 208.764
L211.339 209.626
L215.706 210.215
L220.108 210.528
L224.526 210.564
L228.943 210.322
L233.343 209.801
L237.707 209.003
L242.017 207.931
L246.257 206.588
L250.41 204.979
L254.459 203.109
L258.387 200.985
L262.178 198.615
L265.818 196.008
L269.291 193.173
L272.583 190.121
L275.68 186.864
L278.57 183.413
L281.241 179.783
L283.681 175.987
L285.881 172.04
L287.83 167.957
L289.52 163.754
L290.945 159.448
L292.097 155.054
L292.971 150.591
L293.564 146.076
L293.872 141.527
L293.892 136.962
L293.626 132.398
L293.071 127.855
L292.231 123.349
L291.108 118.9
L289.705 114.524
L288.027 110.24
L286.081 106.065
L283.873 102.015
L281.411 98.1075
L278.705 94.3578
L275.764 90.7812
L272.6 87.3924
L269.225 84.2054
L265.652 81.2334
L261.894 78.4886
L257.965 75.9826
L253.882 73.726
L249.659 71.7282
L245.313 69.998
L240.862 68.5429
L236.322 67.3692
L231.712 66.4825
L227.049 65.8869
L222.352 65.5856
L217.639 65.5804
L212.93 65.8721
L208.242 66.4603
L203.595 67.3435
L199.007 68.5188
L194.496 69.9823
L190.081 71.7289
L185.78 73.7523
L181.609 76.0453
L177.585 78.5993
L173.726 81.4049
L170.046 84.4516
L166.561 87.7278
L163.285 91.2212
L160.231 94.9183
L157.413 98.8049
L154.842 102.866
L152.529 107.086
L150.483 111.449
L148.713 115.937
L147.228 120.534
L146.034 125.22
L145.135 129.978
L144.537 134.789
L144.243 139.634
L144.254 144.494
L144.572 149.349
L145.195 154.181
L146.121 158.969
L147.349 163.696
L148.874 168.341
L150.69 172.887
L152.791 177.314
L155.169 181.606
L157.816 185.745
L160.722 189.714
L163.875 193.496
L167.264 197.077
L170.876 200.442
L174.697 203.576
L178.712 206.467
L182.907 209.103
L187.264 211.473
L191.767 213.566
L196.398 215.374
L201.14 216.889
L205.973 218.103
L210.878 219.013
L215.837 219.612
L220.83 219.899
L225.837 219.871
L230.838 219.527
L235.813 218.869
L240.743 217.898
L245.608 216.617
L250.388 215.031
L255.064 213.144
L259.617 210.965
L264.03 208.501
L268.283 205.761
L272.361 202.755
L276.246 199.495
L279.922 195.992
L283.375 192.261
L286.59 188.316
L289.553 184.171
L292.253 179.843
L294.678 175.349
L296.818 170.706
L298.664 165.931
L300.207 161.045
L301.442 156.065
L302.361 151.011
L302.962 145.904
L303.24 140.764
L303.195 135.61
L302.824 130.463
L302.13 125.344
L301.114 120.273
L299.779 115.271
L298.131 110.356
L296.174 105.55
L293.916 100.871
L291.365 96.3384
L288.531 91.9702
L285.425 87.7842
L282.057 83.7975
L278.441 80.0264
L274.59 76.4862
L270.52 73.1916
L266.246 70.1562
L261.784 67.3927
L257.152 64.9125
L252.368 62.7263
L247.451 60.8433
L242.419 59.2717
L237.292 58.0184
L232.091 57.0891
L226.836 56.4882
L221.547 56.2189
L216.246 56.2828
L210.954 56.6807
L205.692 57.4115
L200.48 58.4731
L195.339 59.8621
L190.291 61.5736
L185.355 63.6016
L180.551 65.9387
L175.898 68.5764
L171.416 71.5047
L167.122 74.7129
L163.034 78.1886
L159.168 81.9187
L155.541 85.889
L152.167 90.0842
L149.06 94.4882
L146.234 99.084
L143.699 103.854
L141.468 108.779
L139.548 113.84
L137.949 119.017
L136.677 124.291
L135.739 129.64
L135.138 135.043
L134.879 140.48
L134.961 145.927
L135.387 151.365
L136.155 156.771
L137.263 162.123
L138.707 167.401
L140.482 172.584
L142.582 177.649
L144.999 182.578
L147.724 187.35
L150.747 191.946
L154.057 196.348
L157.641 200.537
L161.486 204.496
L165.577 208.21
L169.897 211.663
L174.431 214.84
L179.162 217.729
L184.069 220.317
L189.135 222.594
L194.34 224.55
L199.664 226.176
L205.084 227.465
L210.581 228.412
L216.133 229.012
L221.717 229.261
L227.311 229.159
L232.894 228.704
L238.443 227.898
L243.936 226.744
L249.352 225.244
L254.667 223.405
L259.862 221.233
L264.916 218.736
L269.807 215.922
L274.517 212.804
L279.025 209.391
L283.315 205.698
L287.368 201.739
L291.167 197.528
L294.698 193.081
L297.946 188.416
L300.897 183.552
L303.538 178.506
L305.859 173.298
L307.851 167.949
L309.503 162.48
L310.809 156.912
L311.764 151.267
L312.362 145.568
L312.6 139.836
L312.478 134.095
L311.994 128.366
L311.149 122.674
L309.947 117.041
L308.392 111.488
L306.488 106.039
L304.243 100.715
L301.664 95.5379
L298.763 90.5278
L295.548 85.7053
L292.033 81.0899
L288.231 76.7003
L284.156 72.5545
L279.823 68.6692
L275.251 65.0606
L270.455 61.7434
L265.455 58.7315
L260.271 56.0373
L254.922 53.6723
L249.429 51.6464
L243.814 49.9684
L238.099 48.6456
L232.306 47.6841
L226.458 47.0882
L220.578 46.8612
L214.69 47.0047
L208.817 47.5188
L202.982 48.4023
L197.208 49.6524
L191.519 51.2648
L185.937 53.2339
L180.484 55.5525
L175.183 58.2123
L170.054 61.2032
L165.119 64.5141
L160.398 68.1325
L155.908 72.0446
L151.67 76.2355
L147.7 80.6892
L144.014 85.3884
L140.628 90.3151
L137.555 95.45
L134.809 100.773
L132.401 106.264
L130.341 111.901
L128.638 117.662
L127.299 123.525
L126.331 129.466
L125.738 135.462
L125.524 141.489
L125.688 147.524
L126.233 153.542
L127.156 159.52
L128.455 165.434
L130.125 171.26
L132.16 176.975
L134.553 182.556
L137.294 187.981
L140.375 193.227
L143.783 198.275
L147.505 203.102
L151.527 207.69
L155.835 212.021
L160.41 216.075
L165.236 219.838
L170.294 223.293
L175.565 226.425
L181.027 229.223
L186.66 231.674
L192.442 233.767
L198.349 235.495
L204.359 236.848
L210.448 237.822
L216.592 238.412
L222.767 238.613
L228.949 238.426
L235.112 237.85
L241.232 236.887
L247.286 235.539
L253.249 233.811
L259.096 231.71
L264.805 229.242
L270.353 226.418
L275.717 223.247
L280.876 219.742
L285.809 215.915
L290.496 211.782
L294.918 207.358
L299.057 202.661
L302.895 197.707
L306.418 192.517
L309.61 187.111
L312.458 181.509
L314.951 175.734
L317.078 169.808
L318.829 163.754
L320.197 157.597
L321.176 151.359
L321.761 145.067
L321.95 138.744
L321.74 132.416
L321.132 126.108
L320.127 119.845
L318.729 113.652
L316.943 107.553
L314.774 101.574
L312.232 95.7368
L309.324 90.0662
L306.063 84.5846
L302.46 79.3142
L298.529 74.2762
L294.284 69.4911
L289.743 64.9783
L284.923 60.7562
L279.842 56.8421
L274.52 53.2521
L268.978 50.001
L263.236 47.1023
L257.319 44.5682
L251.248 42.4094
L245.048 40.6351
L238.742 39.2531
L232.357 38.2696
L225.916 37.6891
L219.446 37.5148
L212.972 37.7481
L206.519 38.3888
L200.113 39.435
L193.781 40.8834
L187.546 42.729
L181.434 44.9651
L175.47 47.5836
L169.677 50.5748
L164.078 53.9275
L158.697 57.6291
L153.554 61.6654
L148.671 66.0212
L144.068 70.6798
L139.763 75.623
L135.774 80.832
L132.117 86.2865
L128.808 91.9653
L125.859 97.8462
L123.285 103.906
L121.094 110.122
L119.297 116.469
L117.902 122.922
L116.915 129.456
L116.34 136.045
L116.18 142.663
L116.438 149.284
L117.111 155.881
L118.2 162.429
L119.699 168.901
L121.605 175.271
L123.909 181.514
L126.604 187.606
L129.68 193.521
L133.124 199.236
L136.924 204.728
L141.067 209.975
L145.534 214.955
L150.311 219.648
L155.378 224.036
L160.715 228.099
L166.302 231.822
L172.118 235.19
L178.139 238.187
L184.342 240.802
L190.702 243.023
L197.196 244.842
L203.797 246.25
L210.479 247.241
L217.216 247.809
L223.982 247.953
L230.749 247.671
L237.491 246.964
L244.18 245.832
L250.791 244.281
L257.297 242.315
L263.672 239.942
L269.891 237.17
L275.928 234.01
L281.759 230.473
L287.361 226.573
L292.711 222.325
L297.788 217.745
L302.571 212.85
L307.04 207.66
L311.178 202.194
L314.967 196.473
L318.391 190.521
L321.437 184.36
L324.091 178.013
L326.343 171.507
L328.183 164.867
L329.603 158.118
L330.596 151.287
L331.158 144.402
L331.286 137.489
L330.979 130.576
L330.237 123.69
L329.062 116.858
L327.458 110.108
L325.431 103.467
L322.989 96.9606
L320.139 90.6156
L316.894 84.4572
L313.264 78.51
L309.264 72.7982
L304.91 67.3446
L300.216 62.1715
L295.203 57.2996
L289.888 52.749
L284.293 48.538
L278.439 44.6842
L272.35 41.2032
L266.048 38.1096
L266.048 38.1096" style="fill:none;stroke:#0000ff;stroke-linecap:square;"/>
   </g>
   <g id="line2d_2">
    <path clip-path="url(#pf805d1d729)" d="
M222.888 140.4
L222.783 139.852
L222.484 139.38
L222.031 139.053
L221.49 138.915
L220.936 138.986
L220.448 139.256
L220.093 139.688
L219.923 140.22
L219.961 140.777
L220.201 141.281
L220.61 141.661
L221.13 141.863
L221.689 141.86
L222.207 141.65
L222.611 141.265
L222.844 140.758
L222.875 140.2
L222.697 139.671
L222.337 139.244
L221.845 138.98
L221.29 138.916
L220.751 139.061
L220.303 139.395
L220.01 139.87
L219.912 140.42
L220.024 140.967
L220.33 141.434
L220.786 141.756
L221.329 141.886
L221.882 141.808
L222.367 141.531
L222.716 141.095
L222.879 140.561
L222.834 140.004
L222.588 139.503
L222.173 139.129
L221.65 138.933
L221.092 138.944
L220.577 139.16
L220.178 139.551
L219.951 140.061
L219.928 140.619
L220.113 141.146
L220.478 141.568
L220.974 141.826
L221.529 141.882
L222.067 141.73
L222.51 141.391
L222.797 140.912
L222.887 140.361
L222.768 139.815
L222.456 139.352
L221.996 139.036
L221.451 138.913
L220.899 138.999
L220.418 139.282
L220.075 139.723
L219.919 140.259
L219.971 140.815
L220.224 141.312
L220.643 141.681
L221.169 141.87
L221.727 141.852
L222.239 141.629
L222.633 141.233
L222.853 140.72
L222.869 140.162
L222.677 139.637
L222.306 139.22
L221.807 138.969
L221.251 138.919
L220.716 139.079
L220.277 139.424
L219.996 139.906
L219.913 140.459
L220.039 141.003
L220.357 141.462
L220.822 141.771
L221.368 141.888
L221.919 141.795
L222.396 141.505
L222.734 141.06
L222.883 140.522
L222.824 139.967
L222.564 139.472
L222.14 139.109
L221.612 138.927
L221.054 138.953
L220.545 139.182
L220.156 139.583
L219.943 140.099
L219.934 140.658
L220.133 141.18
L220.509 141.592
L221.011 141.836
L221.568 141.878
L222.101 141.712
L222.536 141.361
L222.81 140.875
L222.886 140.322
L222.752 139.78
L222.429 139.325
L221.96 139.021
L221.412 138.912
L220.863 139.012
L220.389 139.308
L220.058 139.758
L219.916 140.298
L219.982 140.852
L220.249 141.343
L220.677 141.701
L221.208 141.876
L221.765 141.843
L222.271 141.606
L222.654 141.2
L222.861 140.682
L222.862 140.123
L222.657 139.604
L222.275 139.196
L221.77 138.959
L221.212 138.924
L220.681 139.097
L220.252 139.454
L219.984 139.944
L219.915 140.498
L220.056 141.038
L220.386 141.489
L220.858 141.786
L221.407 141.888
L221.955 141.78
L222.425 141.479
L222.751 141.025
L222.886 140.483
L222.812 139.929
L222.539 139.442
L222.106 139.09
L221.573 138.922
L221.016 138.962
L220.513 139.205
L220.135 139.616
L219.935 140.138
L219.942 140.696
L220.154 141.213
L220.541 141.615
L221.049 141.846
L221.607 141.874
L222.136 141.693
L222.561 141.331
L222.822 140.838
L222.883 140.283
L222.736 139.744
L222.4 139.298
L221.923 139.007
L221.373 138.912
L220.827 139.027
L220.361 139.335
L220.041 139.793
L219.913 140.337
L219.995 140.889
L220.274 141.373
L220.712 141.719
L221.247 141.88
L221.803 141.832
L222.303 141.583
L222.675 141.167
L222.868 140.643
L222.854 140.085
L222.636 139.571
L222.243 139.174
L221.732 138.949
L221.174 138.929
L220.647 139.116
L220.227 139.484
L219.972 139.981
L219.918 140.537
L220.073 141.073
L220.415 141.515
L220.895 141.8
L221.447 141.887
L221.991 141.765
L222.453 141.451
L222.766 140.989
L222.887 140.444
L222.799 139.892
L222.513 139.413
L222.071 139.072
L221.534 138.918
L220.978 138.973
L220.482 139.229
L220.115 139.65
L219.929 140.176
L219.95 140.734
L220.175 141.245
L220.573 141.637
L221.087 141.855
L221.646 141.868
L222.169 141.674
L222.585 141.3
L222.772 140.977
L222.772 140.977" style="fill:none;stroke:#008000;stroke-linecap:square;"/>
   </g>
   <g id="patch_3">
    <path d="
M109.8 252
L109.8 28.8" style="fill:none;stroke:#000000;stroke-linecap:square;stroke-linejoin:miter;"/>
   </g>
   <g id="patch_4">
    <path d="
M333 252
L333 28.8" style="fill:none;stroke:#000000;stroke-linecap:square;stroke-linejoin:miter;"/>
   </g>
   <g id="patch_5">
    <path d="
M109.8 28.8
L333 28.8" style="fill:none;stroke:#000000;stroke-linecap:square;stroke-linejoin:miter;"/>
   </g>
   <g id="patch_6">
    <path d="
M109.8 252
L333 252" style="fill:none;stroke:#000000;stroke-linecap:square;stroke-linejoin:miter;"/>
   </g>
   <g id="matplotlib.axis_1">
    <g id="xtick_1">
     <g id="line2d_3">
      <path clip-path="url(#pf805d1d729)" d="
M109.8 252
L109.8 28.8" style="fill:none;stroke:#000000;stroke-dasharray:1.000000,3.000000;stroke-dashoffset:0.0;stroke-width:0.5;"/>
     </g>
     <g id="line2d_4">
      <defs>
       <path d="
M0 0
L0 -4" id="mc7db9fdffb" style="stroke:#000000;stroke-width:0.5;"/>
      </defs>
      <g>
       <use style="stroke:#000000;stroke-width:0.5;" x="109.8" xlink:href="#mc7db9fdffb" y="252.0"/>
      </g>
     </g>
     <g id="line2d_5">
      <defs>
       <path d="
M0 0
L0 4" id="m5a7d422ac3" style="stroke:#000000;stroke-width:0.5;"/>
      </defs>
      <g>
       <use style="stroke:#000000;stroke-width:0.5;" x="109.8" xlink:href="#m5a7d422ac3" y="28.8"/>
      </g>
     </g>
     <g id="text_1">
      <!-- −6 -->
      <defs>
       <path d="
M10.5938 35.5
L73.1875 35.5
L73.1875 27.2031
L10.5938 27.2031
z
" id="BitstreamVeraSans-Roman-2212"/>
       <path d="
M33.0156 40.375
Q26.375 40.375 22.4844 35.8281
Q18.6094 31.2969 18.6094 23.3906
Q18.6094 15.5312 22.4844 10.9531
Q26.375 6.39062 33.0156 6.39062
Q39.6562 6.39062 43.5312 10.9531
Q47.4062 15.5312 47.4062 23.3906
Q47.4062 31.2969 43.5312 35.8281
Q39.6562 40.375 33.0156 40.375
M52.5938 71.2969
L52.5938 62.3125
Q48.875 64.0625 45.0938 64.9844
Q41.3125 65.9219 37.5938 65.9219
Q27.8281 65.9219 22.6719 59.3281
Q17.5312 52.7344 16.7969 39.4062
Q19.6719 43.6562 24.0156 45.9219
Q28.375 48.1875 33.5938 48.1875
Q44.5781 48.1875 50.9531 41.5156
Q57.3281 34.8594 57.3281 23.3906
Q57.3281 12.1562 50.6875 5.35938
Q44.0469 -1.42188 33.0156 -1.42188
Q20.3594 -1.42188 13.6719 8.26562
Q6.98438 17.9688 6.98438 36.375
Q6.98438 53.6562 15.1875 63.9375
Q23.3906 74.2188 37.2031 74.2188
Q40.9219 74.2188 44.7031 73.4844
Q48.4844 72.75 52.5938 71.2969" id="BitstreamVeraSans-Roman-36"/>
      </defs>
      <g transform="translate(103.2734375 263.5984375)scale(0.1 -0.1)">
       <use xlink:href="#BitstreamVeraSans-Roman-2212"/>
       <use x="83.7890625" xlink:href="#BitstreamVeraSans-Roman-36"/>
      </g>
     </g>
    </g>
    <g id="xtick_2">
     <g id="line2d_6">
      <path clip-path="url(#pf805d1d729)" d="
M147 252
L147 28.8" style="fill:none;stroke:#000000;stroke-dasharray:1.000000,3.000000;stroke-dashoffset:0.0;stroke-width:0.5;"/>
     </g>
     <g id="line2d_7">
      <g>
       <use style="stroke:#000000;stroke-width:0.5;" x="147.0" xlink:href="#mc7db9fdffb" y="252.0"/>
      </g>
     </g>
     <g id="line2d_8">
      <g>
       <use style="stroke:#000000;stroke-width:0.5;" x="147.0" xlink:href="#m5a7d422ac3" y="28.8"/>
      </g>
     </g>
     <g id="text_2">
      <!-- −4 -->
      <defs>
       <path d="
M37.7969 64.3125
L12.8906 25.3906
L37.7969 25.3906
z

M35.2031 72.9062
L47.6094 72.9062
L47.6094 25.3906
L58.0156 25.3906
L58.0156 17.1875
L47.6094 17.1875
L47.6094 0
L37.7969 0
L37.7969 17.1875
L4.89062 17.1875
L4.89062 26.7031
z
" id="BitstreamVeraSans-Roman-34"/>
      </defs>
      <g transform="translate(140.4390625 263.5984375)scale(0.1 -0.1)">
       <use xlink:href="#BitstreamVeraSans-Roman-2212"/>
       <use x="83.7890625" xlink:href="#BitstreamVeraSans-Roman-34"/>
      </g>
     </g>
    </g>
    <g id="xtick_3">
     <g id="line2d_9">
      <path clip-path="url(#pf805d1d729)" d="
M184.2 252
L184.2 28.8" style="fill:none;stroke:#000000;stroke-dasharray:1.000000,3.000000;stroke-dashoffset:0.0;stroke-width:0.5;"/>
     </g>
     <g id="line2d_10">
      <g>
       <use style="stroke:#000000;stroke-width:0.5;" x="184.2" xlink:href="#mc7db9fdffb" y="252.0"/>
      </g>
     </g>
     <g id="line2d_11">
      <g>
       <use style="stroke:#000000;stroke-width:0.5;" x="184.2" xlink:href="#m5a7d422ac3" y="28.8"/>
      </g>
     </g>
     <g id="text_3">
      <!-- −2 -->
      <defs>
       <path d="
M19.1875 8.29688
L53.6094 8.29688
L53.6094 0
L7.32812 0
L7.32812 8.29688
Q12.9375 14.1094 22.625 23.8906
Q32.3281 33.6875 34.8125 36.5312
Q39.5469 41.8438 41.4219 45.5312
Q43.3125 49.2188 43.3125 52.7812
Q43.3125 58.5938 39.2344 62.25
Q35.1562 65.9219 28.6094 65.9219
Q23.9688 65.9219 18.8125 64.3125
Q13.6719 62.7031 7.8125 59.4219
L7.8125 69.3906
Q13.7656 71.7812 18.9375 73
Q24.125 74.2188 28.4219 74.2188
Q39.75 74.2188 46.4844 68.5469
Q53.2188 62.8906 53.2188 53.4219
Q53.2188 48.9219 51.5312 44.8906
Q49.8594 40.875 45.4062 35.4062
Q44.1875 33.9844 37.6406 27.2188
Q31.1094 20.4531 19.1875 8.29688" id="BitstreamVeraSans-Roman-32"/>
      </defs>
      <g transform="translate(177.859375 263.5984375)scale(0.1 -0.1)">
       <use xlink:href="#BitstreamVeraSans-Roman-2212"/>
       <use x="83.7890625" xlink:href="#BitstreamVeraSans-Roman-32"/>
      </g>
     </g>
    </g>
    <g id="xtick_4">
     <g id="line2d_12">
      <path clip-path="url(#pf805d1d729)" d="
M221.4 252
L221.4 28.8" style="fill:none;stroke:#000000;stroke-dasharray:1.000000,3.000000;stroke-dashoffset:0.0;stroke-width:0.5;"/>
     </g>
     <g id="line2d_13">
      <g>
       <use style="stroke:#000000;stroke-width:0.5;" x="221.4" xlink:href="#mc7db9fdffb" y="252.0"/>
      </g>
     </g>
     <g id="line2d_14">
      <g>
       <use style="stroke:#000000;stroke-width:0.5;" x="221.4" xlink:href="#m5a7d422ac3" y="28.8"/>
      </g>
     </g>
     <g id="text_4">
      <!-- 0 -->
      <defs>
       <path d="
M31.7812 66.4062
Q24.1719 66.4062 20.3281 58.9062
Q16.5 51.4219 16.5 36.375
Q16.5 21.3906 20.3281 13.8906
Q24.1719 6.39062 31.7812 6.39062
Q39.4531 6.39062 43.2812 13.8906
Q47.125 21.3906 47.125 36.375
Q47.125 51.4219 43.2812 58.9062
Q39.4531 66.4062 31.7812 66.4062
M31.7812 74.2188
Q44.0469 74.2188 50.5156 64.5156
Q56.9844 54.8281 56.9844 36.375
Q56.9844 17.9688 50.5156 8.26562
Q44.0469 -1.42188 31.7812 -1.42188
Q19.5312 -1.42188 13.0625 8.26562
Q6.59375 17.9688 6.59375 36.375
Q6.59375 54.8281 13.0625 64.5156
Q19.5312 74.2188 31.7812 74.2188" id="BitstreamVeraSans-Roman-30"/>
      </defs>
      <g transform="translate(218.88046875 263.5984375)scale(0.1 -0.1)">
       <use xlink:href="#BitstreamVeraSans-Roman-30"/>
      </g>
     </g>
    </g>
    <g id="xtick_5">
     <g id="line2d_15">
      <path clip-path="url(#pf805d1d729)" d="
M258.6 252
L258.6 28.8" style="fill:none;stroke:#000000;stroke-dasharray:1.000000,3.000000;stroke-dashoffset:0.0;stroke-width:0.5;"/>
     </g>
     <g id="line2d_16">
      <g>
       <use style="stroke:#000000;stroke-width:0.5;" x="258.6" xlink:href="#mc7db9fdffb" y="252.0"/>
      </g>
     </g>
     <g id="line2d_17">
      <g>
       <use style="stroke:#000000;stroke-width:0.5;" x="258.6" xlink:href="#m5a7d422ac3" y="28.8"/>
      </g>
     </g>
     <g id="text_5">
      <!-- 2 -->
      <g transform="translate(256.2859375 263.5984375)scale(0.1 -0.1)">
       <use xlink:href="#BitstreamVeraSans-Roman-32"/>
      </g>
     </g>
    </g>
    <g id="xtick_6">
     <g id="line2d_18">
      <path clip-path="url(#pf805d1d729)" d="
M295.8 252
L295.8 28.8" style="fill:none;stroke:#000000;stroke-dasharray:1.000000,3.000000;stroke-dashoffset:0.0;stroke-width:0.5;"/>
     </g>
     <g id="line2d_19">
      <g>
       <use style="stroke:#000000;stroke-width:0.5;" x="295.8" xlink:href="#mc7db9fdffb" y="252.0"/>
      </g>
     </g>
     <g id="line2d_20">
      <g>
       <use style="stroke:#000000;stroke-width:0.5;" x="295.8" xlink:href="#m5a7d422ac3" y="28.8"/>
      </g>
     </g>
     <g id="text_6">
      <!-- 4 -->
      <g transform="translate(293.14375 263.5984375)scale(0.1 -0.1)">
       <use xlink:href="#BitstreamVeraSans-Roman-34"/>
      </g>
     </g>
    </g>
    <g id="xtick_7">
     <g id="line2d_21">
      <path clip-path="url(#pf805d1d729)" d="
M333 252
L333 28.8" style="fill:none;stroke:#000000;stroke-dasharray:1.000000,3.000000;stroke-dashoffset:0.0;stroke-width:0.5;"/>
     </g>
     <g id="line2d_22">
      <g>
       <use style="stroke:#000000;stroke-width:0.5;" x="333.0" xlink:href="#mc7db9fdffb" y="252.0"/>
      </g>
     </g>
     <g id="line2d_23">
      <g>
       <use style="stroke:#000000;stroke-width:0.5;" x="333.0" xlink:href="#m5a7d422ac3" y="28.8"/>
      </g>
     </g>
     <g id="text_7">
      <!-- 6 -->
      <g transform="translate(330.4828125 263.5984375)scale(0.1 -0.1)">
       <use xlink:href="#BitstreamVeraSans-Roman-36"/>
      </g>
     </g>
    </g>
    <g id="text_8">
     <!-- x [m] -->
     <defs>
      <path d="
M8.59375 75.9844
L29.2969 75.9844
L29.2969 69
L17.5781 69
L17.5781 -6.20312
L29.2969 -6.20312
L29.2969 -13.1875
L8.59375 -13.1875
z
" id="BitstreamVeraSans-Roman-5b"/>
      <path d="
M52 44.1875
Q55.375 50.25 60.0625 53.125
Q64.75 56 71.0938 56
Q79.6406 56 84.2812 50.0156
Q88.9219 44.0469 88.9219 33.0156
L88.9219 0
L79.8906 0
L79.8906 32.7188
Q79.8906 40.5781 77.0938 44.375
Q74.3125 48.1875 68.6094 48.1875
Q61.625 48.1875 57.5625 43.5469
Q53.5156 38.9219 53.5156 30.9062
L53.5156 0
L44.4844 0
L44.4844 32.7188
Q44.4844 40.625 41.7031 44.4062
Q38.9219 48.1875 33.1094 48.1875
Q26.2188 48.1875 22.1562 43.5312
Q18.1094 38.875 18.1094 30.9062
L18.1094 0
L9.07812 0
L9.07812 54.6875
L18.1094 54.6875
L18.1094 46.1875
Q21.1875 51.2188 25.4844 53.6094
Q29.7812 56 35.6875 56
Q41.6562 56 45.8281 52.9688
Q50 49.9531 52 44.1875" id="BitstreamVeraSans-Roman-6d"/>
      <path id="BitstreamVeraSans-Roman-20"/>
      <path d="
M54.8906 54.6875
L35.1094 28.0781
L55.9062 0
L45.3125 0
L29.3906 21.4844
L13.4844 0
L2.875 0
L24.125 28.6094
L4.6875 54.6875
L15.2812 54.6875
L29.7812 35.2031
L44.2812 54.6875
z
" id="BitstreamVeraSans-Roman-78"/>
      <path d="
M30.4219 75.9844
L30.4219 -13.1875
L9.71875 -13.1875
L9.71875 -6.20312
L21.3906 -6.20312
L21.3906 69
L9.71875 69
L9.71875 75.9844
z
" id="BitstreamVeraSans-Roman-5d"/>
     </defs>
     <g transform="translate(208.509375 278.2765625)scale(0.1 -0.1)">
      <use xlink:href="#BitstreamVeraSans-Roman-78"/>
      <use x="59.1796875" xlink:href="#BitstreamVeraSans-Roman-20"/>
      <use x="90.966796875" xlink:href="#BitstreamVeraSans-Roman-5b"/>
      <use x="129.98046875" xlink:href="#BitstreamVeraSans-Roman-6d"/>
      <use x="227.392578125" xlink:href="#BitstreamVeraSans-Roman-5d"/>
     </g>
    </g>
   </g>
   <g id="matplotlib.axis_2">
    <g id="ytick_1">
     <g id="line2d_24">
      <path clip-path="url(#pf805d1d729)" d="
M109.8 252
L333 252" style="fill:none;stroke:#000000;stroke-dasharray:1.000000,3.000000;stroke-dashoffset:0.0;stroke-width:0.5;"/>
     </g>
     <g id="line2d_25">
      <defs>
       <path d="
M0 0
L4 0" id="md7965d1ba0" style="stroke:#000000;stroke-width:0.5;"/>
      </defs>
      <g>
       <use style="stroke:#000000;stroke-width:0.5;" x="109.8" xlink:href="#md7965d1ba0" y="252.0"/>
      </g>
     </g>
     <g id="line2d_26">
      <defs>
       <path d="
M0 0
L-4 0" id="md9a1c1a7cd" style="stroke:#000000;stroke-width:0.5;"/>
      </defs>
      <g>
       <use style="stroke:#000000;stroke-width:0.5;" x="333.0" xlink:href="#md9a1c1a7cd" y="252.0"/>
      </g>
     </g>
     <g id="text_9">
      <!-- −6 -->
      <g transform="translate(92.746875 254.759375)scale(0.1 -0.1)">
       <use xlink:href="#BitstreamVeraSans-Roman-2212"/>
       <use x="83.7890625" xlink:href="#BitstreamVeraSans-Roman-36"/>
      </g>
     </g>
    </g>
    <g id="ytick_2">
     <g id="line2d_27">
      <path clip-path="url(#pf805d1d729)" d="
M109.8 214.8
L333 214.8" style="fill:none;stroke:#000000;stroke-dasharray:1.000000,3.000000;stroke-dashoffset:0.0;stroke-width:0.5;"/>
     </g>
     <g id="line2d_28">
      <g>
       <use style="stroke:#000000;stroke-width:0.5;" x="109.8" xlink:href="#md7965d1ba0" y="214.8"/>
      </g>
     </g>
     <g id="line2d_29">
      <g>
       <use style="stroke:#000000;stroke-width:0.5;" x="333.0" xlink:href="#md9a1c1a7cd" y="214.8"/>
      </g>
     </g>
     <g id="text_10">
      <!-- −4 -->
      <g transform="translate(92.678125 217.559375)scale(0.1 -0.1)">
       <use xlink:href="#BitstreamVeraSans-Roman-2212"/>
       <use x="83.7890625" xlink:href="#BitstreamVeraSans-Roman-34"/>
      </g>
     </g>
    </g>
    <g id="ytick_3">
     <g id="line2d_30">
      <path clip-path="url(#pf805d1d729)" d="
M109.8 177.6
L333 177.6" style="fill:none;stroke:#000000;stroke-dasharray:1.000000,3.000000;stroke-dashoffset:0.0;stroke-width:0.5;"/>
     </g>
     <g id="line2d_31">
      <g>
       <use style="stroke:#000000;stroke-width:0.5;" x="109.8" xlink:href="#md7965d1ba0" y="177.6"/>
      </g>
     </g>
     <g id="line2d_32">
      <g>
       <use style="stroke:#000000;stroke-width:0.5;" x="333.0" xlink:href="#md9a1c1a7cd" y="177.6"/>
      </g>
     </g>
     <g id="text_11">
      <!-- −2 -->
      <g transform="translate(93.11875 180.359375)scale(0.1 -0.1)">
       <use xlink:href="#BitstreamVeraSans-Roman-2212"/>
       <use x="83.7890625" xlink:href="#BitstreamVeraSans-Roman-32"/>
      </g>
     </g>
    </g>
    <g id="ytick_4">
     <g id="line2d_33">
      <path clip-path="url(#pf805d1d729)" d="
M109.8 140.4
L333 140.4" style="fill:none;stroke:#000000;stroke-dasharray:1.000000,3.000000;stroke-dashoffset:0.0;stroke-width:0.5;"/>
     </g>
     <g id="line2d_34">
      <g>
       <use style="stroke:#000000;stroke-width:0.5;" x="109.8" xlink:href="#md7965d1ba0" y="140.4"/>
      </g>
     </g>
     <g id="line2d_35">
      <g>
       <use style="stroke:#000000;stroke-width:0.5;" x="333.0" xlink:href="#md9a1c1a7cd" y="140.4"/>
      </g>
     </g>
     <g id="text_12">
      <!-- 0 -->
      <g transform="translate(100.7609375 143.159375)scale(0.1 -0.1)">
       <use xlink:href="#BitstreamVeraSans-Roman-30"/>
      </g>
     </g>
    </g>
    <g id="ytick_5">
     <g id="line2d_36">
      <path clip-path="url(#pf805d1d729)" d="
M109.8 103.2
L333 103.2" style="fill:none;stroke:#000000;stroke-dasharray:1.000000,3.000000;stroke-dashoffset:0.0;stroke-width:0.5;"/>
     </g>
     <g id="line2d_37">
      <g>
       <use style="stroke:#000000;stroke-width:0.5;" x="109.8" xlink:href="#md7965d1ba0" y="103.2"/>
      </g>
     </g>
     <g id="line2d_38">
      <g>
       <use style="stroke:#000000;stroke-width:0.5;" x="333.0" xlink:href="#md9a1c1a7cd" y="103.2"/>
      </g>
     </g>
     <g id="text_13">
      <!-- 2 -->
      <g transform="translate(101.171875 105.959375)scale(0.1 -0.1)">
       <use xlink:href="#BitstreamVeraSans-Roman-32"/>
      </g>
     </g>
    </g>
    <g id="ytick_6">
     <g id="line2d_39">
      <path clip-path="url(#pf805d1d729)" d="
M109.8 66
L333 66" style="fill:none;stroke:#000000;stroke-dasharray:1.000000,3.000000;stroke-dashoffset:0.0;stroke-width:0.5;"/>
     </g>
     <g id="line2d_40">
      <g>
       <use style="stroke:#000000;stroke-width:0.5;" x="109.8" xlink:href="#md7965d1ba0" y="66.0"/>
      </g>
     </g>
     <g id="line2d_41">
      <g>
       <use style="stroke:#000000;stroke-width:0.5;" x="333.0" xlink:href="#md9a1c1a7cd" y="66.0"/>
      </g>
     </g>
     <g id="text_14">
      <!-- 4 -->
      <g transform="translate(100.4875 68.759375)scale(0.1 -0.1)">
       <use xlink:href="#BitstreamVeraSans-Roman-34"/>
      </g>
     </g>
    </g>
    <g id="ytick_7">
     <g id="line2d_42">
      <path clip-path="url(#pf805d1d729)" d="
M109.8 28.8
L333 28.8" style="fill:none;stroke:#000000;stroke-dasharray:1.000000,3.000000;stroke-dashoffset:0.0;stroke-width:0.5;"/>
     </g>
     <g id="line2d_43">
      <g>
       <use style="stroke:#000000;stroke-width:0.5;" x="109.8" xlink:href="#md7965d1ba0" y="28.8"/>
      </g>
     </g>
     <g id="line2d_44">
      <g>
       <use style="stroke:#000000;stroke-width:0.5;" x="333.0" xlink:href="#md9a1c1a7cd" y="28.8"/>
      </g>
     </g>
     <g id="text_15">
      <!-- 6 -->
      <g transform="translate(100.765625 31.559375)scale(0.1 -0.1)">
       <use xlink:href="#BitstreamVeraSans-Roman-36"/>
      </g>
     </g>
    </g>
    <g id="text_16">
     <!-- y [m] -->
     <defs>
      <path d="
M32.1719 -5.07812
Q28.375 -14.8438 24.75 -17.8125
Q21.1406 -20.7969 15.0938 -20.7969
L7.90625 -20.7969
L7.90625 -13.2812
L13.1875 -13.2812
Q16.8906 -13.2812 18.9375 -11.5156
Q21 -9.76562 23.4844 -3.21875
L25.0938 0.875
L2.98438 54.6875
L12.5 54.6875
L29.5938 11.9219
L46.6875 54.6875
L56.2031 54.6875
z
" id="BitstreamVeraSans-Roman-79"/>
     </defs>
     <g transform="translate(85.5984375 153.290625)rotate(-90.0)scale(0.1 -0.1)">
      <use xlink:href="#BitstreamVeraSans-Roman-79"/>
      <use x="59.1796875" xlink:href="#BitstreamVeraSans-Roman-20"/>
      <use x="90.966796875" xlink:href="#BitstreamVeraSans-Roman-5b"/>
      <use x="129.98046875" xlink:href="#BitstreamVeraSans-Roman-6d"/>
      <use x="227.392578125" xlink:href="#BitstreamVeraSans-Roman-5d"/>
     </g>
    </g>
   </g>
  </g>
 </g>
 <defs>
  <clipPath id="pf805d1d729">
   <rect height="223.2" width="223.2" x="109.8" y="28.8"/>
  </clipPath>
 </defs>
</svg>
