<?xml version="1.0" encoding="utf-8" standalone="no"?>
<!DOCTYPE svg PUBLIC "-//W3C//DTD SVG 1.1//EN"
  "http://www.w3.org/Graphics/SVG/1.1/DTD/svg11.dtd">
<!-- Created with matplotlib (http://matplotlib.org/) -->
<svg height="288pt" version="1.1" viewBox="0 0 432 288" width="432pt" xmlns="http://www.w3.org/2000/svg" xmlns:xlink="http://www.w3.org/1999/xlink">
 <defs>
  <style type="text/css">
*{stroke-linecap:butt;stroke-linejoin:round;}
  </style>
 </defs>
 <g id="figure_1">
  <g id="patch_1">
   <path d="
M0 288
L432 288
L432 0
L0 0
z
" style="fill:#ffffff;"/>
  </g>
  <g id="axes_1">
   <g id="patch_2">
    <path d="
M109.8 252
L333 252
L333 28.8
L109.8 28.8
z
" style="fill:#ffffff;"/>
   </g>
   <g id="line2d_1">
    <path clip-path="url(#pf805d1d729)" d="
M222.702 140.4
L222.579 139.759
L222.225 139.198
L221.675 138.792
L220.99 138.599
L220.243 138.657
L219.518 138.98
L218.902 139.555
L218.475 140.343
L218.317 141.038
L218.324 141.784
L218.507 142.544
L218.871 143.278
L219.41 143.942
L220.111 144.498
L220.949 144.909
L221.894 145.141
L222.907 145.171
L223.944 144.983
L224.957 144.568
L225.899 143.93
L226.719 143.084
L227.373 142.053
L227.821 140.871
L228.029 139.581
L227.972 138.233
L227.638 136.881
L227.023 135.584
L226.137 134.399
L225.001 133.383
L223.651 132.588
L222.129 132.059
L220.489 131.833
L219.36 131.863
L218.225 132.044
L217.105 132.376
L216.019 132.86
L214.989 133.491
L214.034 134.263
L213.173 135.167
L212.426 136.191
L211.807 137.321
L211.333 138.539
L211.016 139.829
L210.866 141.168
L210.89 142.535
L211.093 143.908
L211.477 145.262
L212.04 146.574
L212.778 147.819
L213.681 148.976
L214.741 150.021
L215.941 150.933
L217.266 151.693
L218.697 152.285
L220.211 152.694
L221.785 152.909
L223.393 152.92
L225.01 152.723
L226.608 152.315
L228.159 151.699
L229.636 150.88
L231.013 149.867
L232.264 148.673
L233.365 147.313
L234.294 145.806
L235.032 144.175
L235.561 142.443
L235.869 140.639
L235.945 138.789
L235.783 136.925
L235.381 135.076
L234.74 133.275
L233.866 131.552
L232.768 129.937
L231.46 128.46
L229.96 127.148
L228.288 126.026
L226.469 125.116
L224.531 124.438
L222.501 124.008
L220.414 123.837
L218.301 123.934
L216.197 124.301
L214.138 124.938
L212.158 125.84
L210.29 126.997
L208.569 128.394
L207.025 130.012
L205.686 131.83
L204.579 133.821
L203.725 135.955
L203.143 138.199
L202.848 140.519
L202.849 142.879
L203.152 145.239
L203.756 147.562
L204.657 149.809
L205.845 151.941
L207.305 153.922
L209.019 155.718
L210.962 157.295
L213.105 158.624
L215.419 159.68
L217.867 160.441
L220.412 160.889
L223.013 161.014
L225.629 160.806
L228.219 160.266
L230.738 159.396
L233.146 158.205
L235.401 156.708
L237.464 154.925
L239.299 152.881
L240.873 150.604
L242.156 148.128
L243.123 145.491
L243.753 142.734
L244.033 139.898
L243.951 137.029
L243.505 134.173
L242.696 131.377
L241.533 128.686
L240.028 126.147
L238.203 123.801
L236.082 121.69
L233.695 119.851
L231.077 118.317
L228.268 117.119
L225.311 116.278
L222.251 115.814
L219.136 115.74
L216.016 116.061
L212.942 116.777
L209.964 117.883
L207.131 119.365
L204.49 121.204
L202.087 123.375
L199.964 125.848
L198.158 128.585
L196.703 131.546
L195.626 134.687
L194.949 137.959
L194.689 141.31
L194.854 144.688
L195.447 148.038
L196.463 151.306
L197.892 154.439
L199.715 157.385
L201.908 160.093
L204.439 162.517
L205.82 163.609
L207.271 164.615
L208.788 165.53
L210.364 166.35
L211.993 167.071
L213.669 167.689
L215.386 168.201
L217.137 168.606
L218.915 168.9
L220.712 169.082
L222.523 169.15
L224.34 169.103
L226.155 168.942
L227.962 168.665
L229.753 168.274
L231.52 167.77
L233.257 167.153
L234.956 166.426
L236.61 165.59
L238.213 164.65
L239.757 163.607
L241.237 162.466
L242.645 161.23
L243.977 159.904
L245.225 158.494
L246.386 157.003
L247.452 155.437
L248.421 153.803
L249.287 152.107
L250.046 150.355
L250.695 148.553
L251.23 146.709
L251.649 144.83
L251.949 142.924
L252.129 140.997
L252.188 139.057
L252.123 137.113
L251.936 135.171
L251.626 133.24
L251.193 131.327
L250.64 129.44
L249.966 127.588
L249.175 125.777
L248.269 124.014
L247.251 122.308
L246.125 120.666
L244.894 119.093
L243.563 117.598
L242.137 116.185
L240.62 114.862
L239.02 113.635
L237.34 112.508
L235.589 111.486
L233.772 110.574
L231.896 109.777
L229.969 109.098
L227.998 108.541
L225.991 108.108
L223.955 107.801
L221.899 107.623
L219.831 107.575
L217.759 107.658
L215.691 107.871
L213.635 108.215
L211.601 108.69
L209.595 109.293
L207.627 110.023
L205.703 110.878
L203.833 111.855
L202.024 112.951
L200.283 114.161
L198.619 115.482
L197.036 116.909
L195.544 118.436
L194.147 120.058
L192.852 121.769
L191.665 123.562
L190.59 125.432
L189.633 127.369
L188.799 129.369
L188.09 131.421
L187.511 133.519
L187.064 135.655
L186.752 137.819
L186.576 140.004
L186.538 142.201
L186.64 144.401
L186.88 146.595
L187.259 148.775
L187.775 150.931
L188.428 153.056
L189.216 155.14
L190.135 157.175
L191.183 159.153
L192.357 161.065
L193.651 162.903
L195.063 164.66
L196.585 166.329
L198.213 167.902
L199.941 169.372
L201.763 170.734
L203.671 171.981
L205.658 173.108
L207.717 174.11
L209.839 174.982
L212.017 175.72
L214.243 176.32
L216.506 176.781
L218.8 177.098
L221.114 177.271
L223.439 177.298
L225.767 177.177
L228.087 176.91
L230.391 176.496
L232.67 175.937
L234.913 175.234
L237.113 174.389
L239.259 173.405
L241.344 172.285
L243.359 171.033
L245.295 169.654
L247.144 168.152
L248.898 166.534
L250.551 164.804
L252.095 162.97
L253.523 161.038
L254.83 159.016
L256.009 156.91
L257.055 154.731
L257.964 152.484
L258.731 150.18
L259.352 147.828
L259.826 145.436
L260.148 143.013
L260.318 140.57
L260.333 138.116
L260.193 135.661
L259.899 133.215
L259.45 130.787
L258.847 128.387
L258.094 126.024
L257.19 123.709
L256.141 121.451
L254.949 119.259
L253.619 117.143
L252.155 115.109
L250.563 113.169
L248.848 111.328
L247.017 109.596
L245.076 107.979
L243.033 106.485
L240.896 105.119
L238.673 103.888
L236.372 102.798
L234.002 101.853
L231.572 101.057
L229.092 100.415
L226.571 99.9286
L224.02 99.6018
L221.448 99.4359
L218.866 99.4324
L216.283 99.5918
L213.711 99.9141
L211.158 100.399
L208.637 101.045
L206.156 101.849
L203.726 102.811
L201.357 103.925
L199.058 105.19
L196.839 106.599
L194.709 108.148
L192.677 109.831
L190.751 111.643
L188.939 113.576
L187.25 115.623
L185.689 117.777
L184.265 120.029
L182.983 122.371
L181.849 124.793
L180.867 127.287
L180.043 129.843
L179.381 132.45
L178.883 135.099
L178.552 137.779
L178.39 140.48
L178.398 143.191
L178.578 145.901
L178.928 148.6
L179.449 151.276
L180.139 153.919
L180.995 156.518
L182.015 159.063
L183.195 161.543
L184.532 163.949
L186.02 166.27
L187.655 168.497
L189.43 170.62
L191.338 172.631
L193.373 174.522
L195.528 176.283
L197.792 177.909
L200.16 179.392
L202.62 180.725
L205.164 181.903
L207.782 182.92
L210.463 183.772
L213.198 184.454
L215.976 184.964
L218.785 185.299
L221.615 185.456
L224.454 185.435
L227.292 185.235
L230.116 184.856
L232.916 184.299
L235.68 183.565
L238.398 182.657
L241.058 181.578
L243.649 180.331
L246.161 178.922
L248.583 177.354
L250.907 175.634
L253.121 173.767
L255.217 171.761
L257.186 169.624
L259.02 167.363
L260.711 164.986
L262.251 162.504
L263.635 159.925
L264.856 157.259
L265.908 154.517
L266.788 151.71
L267.49 148.847
L268.011 145.941
L268.349 143.003
L268.502 140.044
L268.468 137.076
L268.246 134.111
L267.838 131.161
L267.244 128.238
L266.466 125.352
L265.506 122.517
L264.368 119.742
L263.055 117.041
L261.572 114.422
L259.924 111.898
L258.118 109.479
L256.16 107.174
L254.056 104.993
L251.816 102.946
L249.448 101.04
L246.96 99.2847
L244.362 97.6864
L241.664 96.2523
L238.877 94.9888
L236.01 93.9013
L233.077 92.995
L230.086 92.2739
L227.052 91.7415
L223.984 91.4006
L220.897 91.2533
L217.8 91.3006
L214.708 91.5431
L211.633 91.9805
L208.585 92.6116
L205.579 93.4346
L202.625 94.4469
L199.737 95.645
L196.924 97.0248
L194.2 98.5814
L191.575 100.309
L189.06 102.202
L186.665 104.253
L184.4 106.453
L182.274 108.796
L180.297 111.272
L178.477 113.872
L176.821 116.586
L175.337 119.402
L174.031 122.312
L172.909 125.302
L171.976 128.363
L171.237 131.481
L170.694 134.644
L170.35 137.84
L170.208 141.057
L170.269 144.281
L170.534 147.501
L171.001 150.702
L171.669 153.873
L172.538 157
L173.603 160.072
L174.861 163.074
L176.308 165.997
L177.939 168.827
L179.747 171.553
L181.726 174.164
L183.869 176.649
L186.168 178.998
L188.614 181.201
L191.198 183.249
L193.91 185.134
L196.739 186.846
L199.675 188.38
L202.706 189.728
L205.821 190.884
L209.008 191.843
L212.254 192.602
L215.546 193.155
L218.871 193.5
L222.217 193.636
L225.57 193.561
L228.916 193.275
L232.243 192.777
L235.537 192.071
L238.785 191.157
L241.974 190.039
L245.091 188.72
L248.124 187.206
L251.059 185.501
L253.886 183.612
L256.592 181.545
L259.167 179.31
L261.6 176.912
L263.881 174.363
L265.999 171.671
L267.948 168.848
L269.717 165.902
L271.3 162.847
L272.689 159.693
L273.879 156.453
L274.864 153.14
L275.64 149.767
L276.204 146.346
L276.551 142.892
L276.68 139.417
L276.591 135.936
L276.282 132.462
L275.754 129.01
L275.009 125.593
L274.049 122.224
L272.877 118.918
L271.498 115.687
L269.916 112.544
L268.136 109.503
L266.166 106.576
L264.013 103.775
L261.684 101.11
L259.188 98.5941
L256.535 96.2365
L253.735 94.0473
L250.799 92.0356
L247.738 90.2101
L244.563 88.5785
L241.287 87.1478
L237.922 85.9243
L234.483 84.9134
L230.981 84.1198
L227.432 83.5473
L223.848 83.1987
L220.245 83.0761
L216.636 83.1806
L213.035 83.5125
L209.457 84.071
L205.917 84.8546
L202.427 85.8609
L199.004 87.0864
L195.659 88.527
L192.407 90.1774
L189.261 92.0318
L186.234 94.0833
L183.337 96.3244
L180.584 98.7466
L177.984 101.341
L175.55 104.098
L173.291 107.006
L171.216 110.055
L169.334 113.233
L167.654 116.527
L166.183 119.926
L164.926 123.415
L163.89 126.981
L163.079 130.61
L162.498 134.289
L162.148 138.001
L162.033 141.734
L162.153 145.471
L162.508 149.199
L163.098 152.902
L163.92 156.565
L164.973 160.175
L166.253 163.716
L167.755 167.174
L169.474 170.535
L171.404 173.786
L173.537 176.914
L175.866 179.905
L178.382 182.747
L181.075 185.43
L183.936 187.94
L186.953 190.27
L190.114 192.407
L193.409 194.344
L196.823 196.072
L200.344 197.584
L203.958 198.874
L207.651 199.934
L211.408 200.762
L215.216 201.352
L219.057 201.702
L222.919 201.81
L226.784 201.675
L230.639 201.296
L234.467 200.674
L238.254 199.812
L241.983 198.712
L245.641 197.378
L249.213 195.814
L252.683 194.026
L256.039 192.021
L259.266 189.806
L262.352 187.389
L265.283 184.779
L268.047 181.986
L270.634 179.021
L273.033 175.896
L275.233 172.621
L277.225 169.21
L279.001 165.675
L280.553 162.031
L281.875 158.292
L282.96 154.473
L283.804 150.587
L284.402 146.651
L284.753 142.68
L284.853 138.69
L284.701 134.697
L284.298 130.715
L283.645 126.762
L282.743 122.852
L281.595 119.003
L280.206 115.228
L278.58 111.543
L276.723 107.964
L274.642 104.503
L272.344 101.177
L269.839 97.9973
L267.135 94.9779
L264.243 92.1308
L261.173 89.468
L257.938 87.0004
L254.55 84.7383
L251.022 82.6912
L247.368 80.8678
L243.601 79.2759
L239.737 77.9223
L235.79 76.8131
L231.777 75.9533
L227.712 75.3469
L223.612 74.9969
L219.493 74.9054
L215.371 75.0734
L211.263 75.5008
L207.185 76.1867
L203.153 77.1289
L199.183 78.3243
L195.291 79.7689
L191.494 81.4574
L187.805 83.3839
L184.241 85.5413
L180.815 87.9214
L177.542 90.5156
L174.434 93.314
L171.505 96.3059
L168.767 99.4801
L166.23 102.824
L163.906 106.326
L161.805 109.971
L159.934 113.746
L158.303 117.635
L156.918 121.625
L155.785 125.698
L154.91 129.84
L154.296 134.034
L153.947 138.263
L153.864 142.511
L154.049 146.761
L154.501 150.996
L155.22 155.199
L156.202 159.353
L157.446 163.443
L158.946 167.451
L160.698 171.361
L162.694 175.158
L164.928 178.827
L167.391 182.352
L170.074 185.719
L172.967 188.914
L176.059 191.925
L179.339 194.738
L182.792 197.343
L186.407 199.728
L190.17 201.884
L194.065 203.801
L198.078 205.471
L202.192 206.888
L206.393 208.044
L210.663 208.934
L214.986 209.555
L219.344 209.904
L223.721 209.977
L228.098 209.775
L232.46 209.298
L236.788 208.546
L241.065 207.522
L245.274 206.23
L249.399 204.674
L253.422 202.859
L257.327 200.792
L261.099 198.482
L264.723 195.935
L268.183 193.163
L271.466 190.175
L274.558 186.982
L277.447 183.598
L280.12 180.034
L282.566 176.306
L284.775 172.426
L286.739 168.41
L288.448 164.274
L289.895 160.034
L291.074 155.706
L291.979 151.308
L292.607 146.856
L292.954 142.369
L293.018 137.863
L292.798 133.357
L292.295 128.869
L291.51 124.417
L290.444 120.017
L289.103 115.688
L287.491 111.448
L285.612 107.312
L283.475 103.299
L281.087 99.4228
L278.457 95.7008
L275.595 92.1475
L272.512 88.7774
L269.219 85.6043
L265.729 82.6413
L262.056 79.9006
L258.213 77.3935
L254.216 75.1305
L250.079 73.1211
L245.82 71.3739
L241.454 69.8964
L236.999 68.6951
L232.473 67.7752
L227.892 67.1412
L223.275 66.7961
L218.641 66.742
L214.007 66.9798
L209.392 67.509
L204.815 68.3284
L200.293 69.4352
L195.845 70.8257
L191.489 72.4951
L187.241 74.4373
L183.119 76.6452
L179.14 79.1107
L175.32 81.8245
L171.674 84.7764
L168.217 87.9553
L164.963 91.349
L161.926 94.9446
L159.117 98.7281
L156.55 102.685
L154.234 106.8
L152.179 111.058
L150.394 115.44
L148.886 119.932
L147.663 124.514
L146.729 129.169
L146.089 133.879
L145.746 138.625
L145.702 143.388
L145.959 148.149
L146.514 152.89
L147.368 157.592
L148.517 162.236
L149.957 166.804
L151.684 171.276
L153.69 175.636
L155.969 179.865
L158.512 183.948
L161.31 187.866
L164.353 191.604
L167.627 195.148
L171.122 198.482
L174.824 201.594
L178.717 204.469
L182.789 207.097
L187.022 209.465
L191.4 211.565
L195.907 213.388
L200.524 214.925
L205.233 216.17
L210.017 217.118
L214.856 217.763
L219.731 218.104
L224.623 218.137
L229.512 217.862
L234.38 217.279
L239.206 216.391
L243.972 215.199
L248.658 213.709
L253.246 211.925
L257.718 209.854
L262.055 207.503
L266.24 204.882
L270.256 201.999
L274.087 198.867
L277.717 195.496
L281.132 191.9
L284.316 188.092
L287.259 184.088
L289.946 179.902
L292.367 175.551
L294.512 171.051
L296.372 166.421
L297.938 161.678
L299.205 156.841
L300.165 151.929
L300.816 146.961
L301.153 141.957
L301.175 136.936
L300.881 131.919
L300.271 126.925
L299.348 121.975
L298.114 117.087
L296.573 112.281
L294.731 107.578
L292.595 102.994
L290.172 98.5498
L287.473 94.2621
L284.505 90.1485
L281.282 86.2257
L277.815 82.5096
L274.117 79.0153
L270.203 75.7572
L266.088 72.7486
L261.787 70.002
L257.317 67.5287
L252.697 65.3393
L247.943 63.4428
L243.074 61.8474
L238.109 60.5601
L233.069 59.5865
L227.971 58.9312
L222.838 58.5974
L217.689 58.587
L212.544 58.9007
L207.424 59.538
L202.349 60.497
L197.339 61.7744
L192.415 63.3659
L187.596 65.2659
L182.901 67.4672
L178.35 69.962
L173.959 72.7407
L169.749 75.7931
L165.734 79.1074
L161.932 82.6712
L158.358 86.4707
L155.027 90.4914
L151.953 94.7178
L149.147 99.1335
L146.622 103.721
L144.388 108.464
L142.456 113.342
L140.832 118.337
L139.524 123.429
L138.538 128.598
L137.878 133.824
L137.548 139.087
L137.55 144.365
L137.883 149.637
L138.549 154.884
L139.543 160.083
L140.864 165.214
L142.507 170.257
L144.466 175.191
L146.733 179.997
L149.3 184.656
L152.158 189.148
L155.296 193.456
L158.701 197.562
L162.362 201.449
L166.264 205.102
L170.391 208.506
L174.729 211.647
L179.26 214.511
L183.966 217.087
L188.83 219.365
L193.832 221.333
L198.953 222.985
L204.173 224.313
L209.471 225.312
L214.826 225.975
L220.218 226.301
L225.625 226.287
L231.025 225.933
L236.397 225.239
L241.72 224.208
L246.973 222.843
L252.134 221.149
L257.184 219.132
L262.101 216.799
L266.866 214.159
L271.461 211.221
L275.865 207.998
L280.062 204.501
L284.035 200.743
L287.767 196.739
L291.243 192.504
L294.449 188.055
L297.372 183.409
L299.999 178.583
L302.32 173.598
L304.324 168.471
L306.004 163.224
L307.352 157.877
L308.361 152.45
L309.029 146.965
L309.35 141.445
L309.323 135.909
L308.948 130.382
L308.226 124.883
L307.158 119.436
L305.749 114.062
L304.003 108.782
L301.926 103.618
L299.527 98.5896
L296.814 93.7177
L293.796 89.0218
L290.487 84.5207
L286.898 80.2327
L283.043 76.1751
L278.936 72.3645
L274.594 68.8163
L270.033 65.5452
L265.272 62.5646
L260.327 59.8869
L255.22 57.5231
L249.969 55.4834
L244.595 53.7763
L239.12 52.4092
L233.565 51.3881
L227.951 50.7178
L222.301 50.4015
L216.637 50.4411
L210.982 50.8372
L205.357 51.5887
L199.786 52.6934
L194.291 54.1475
L188.893 55.9459
L183.614 58.082
L178.475 60.5481
L173.497 63.335
L168.699 66.4322
L164.102 69.8279
L159.723 73.5093
L155.581 77.4623
L151.692 81.6717
L148.072 86.1213
L144.736 90.7938
L141.698 95.6713
L138.97 100.735
L136.564 105.964
L134.489 111.34
L132.755 116.84
L131.369 122.443
L130.337 128.127
L129.664 133.87
L129.353 139.649
L129.406 145.442
L129.824 151.224
L130.605 156.975
L131.747 162.669
L133.246 168.286
L135.097 173.802
L137.293 179.196
L139.826 184.445
L142.687 189.529
L145.865 194.428
L149.347 199.121
L153.121 203.59
L157.172 207.817
L161.484 211.784
L166.042 215.475
L170.826 218.876
L175.82 221.971
L181.002 224.749
L186.354 227.198
L191.854 229.307
L197.481 231.067
L203.212 232.472
L209.025 233.514
L214.897 234.19
L220.806 234.495
L226.727 234.428
L232.637 233.989
L238.513 233.178
L244.331 231.998
L250.069 230.453
L255.703 228.549
L261.211 226.293
L266.57 223.692
L271.761 220.757
L276.76 217.499
L281.549 213.93
L286.108 210.063
L290.419 205.914
L294.464 201.498
L298.226 196.833
L301.691 191.936
L304.843 186.826
L307.67 181.524
L310.161 176.05
L312.304 170.425
L314.091 164.672
L315.514 158.813
L316.567 152.871
L317.244 146.869
L317.543 140.832
L317.462 134.782
L317 128.745
L316.159 122.743
L314.941 116.801
L313.35 110.943
L311.393 105.191
L309.076 99.5688
L306.407 94.0988
L303.398 88.803
L300.059 83.7025
L296.402 78.818
L292.442 74.1691
L288.195 69.7747
L283.675 65.6526
L278.902 61.8195
L273.892 58.2912
L268.666 55.0822
L263.245 52.2057
L257.648 49.6736
L251.899 47.4966
L246.019 45.6838
L240.032 44.2432
L233.961 43.1809
L227.83 42.5019
L221.663 42.2095
L215.485 42.3054
L209.32 42.79
L203.193 43.6619
L197.128 44.9184
L191.148 46.5552
L185.279 48.5663
L179.543 50.9444
L173.963 53.6808
L168.561 56.7651
L163.36 60.1857
L158.381 63.9297
L153.642 67.9827
L149.164 72.3292
L144.965 76.9524
L141.062 81.8346
L137.47 86.9567
L134.205 92.2989
L131.279 97.8404
L128.706 103.559
L126.496 109.434
L124.658 115.441
L123.199 121.556
L122.128 127.756
L121.448 134.016
L121.162 140.312
L121.273 146.618
L121.781 152.911
L122.684 159.163
L123.979 165.352
L125.663 171.452
L127.728 177.439
L130.167 183.289
L132.972 188.979
L136.132 194.485
L139.634 199.787
L143.466 204.861
L147.612 209.689
L152.058 214.25
L156.785 218.526
L161.776 222.5
L167.011 226.154
L172.47 229.476
L178.131 232.449
L183.973 235.063
L189.973 237.307
L196.106 239.17
L202.35 240.645
L208.679 241.726
L215.068 242.407
L221.493 242.685
L227.928 242.558
L234.348 242.027
L240.726 241.093
L247.038 239.758
L253.258 238.028
L259.363 235.908
L265.326 233.407
L271.126 230.533
L276.737 227.298
L282.138 223.714
L287.308 219.794
L292.225 215.554
L296.868 211.009
L301.221 206.177
L305.264 201.077
L308.982 195.729
L312.359 190.154
L315.381 184.372
L318.035 178.407
L320.311 172.283
L322.199 166.022
L323.691 159.65
L324.78 153.192
L324.78 153.192" style="fill:none;stroke:#0000ff;stroke-linecap:square;"/>
   </g>
   <g id="line2d_2">
    <path clip-path="url(#pf805d1d729)" d="
M222.702 140.4
L222.578 139.845
L222.229 139.396
L221.722 139.138
L221.154 139.121
L220.632 139.348
L220.257 139.776
L220.1 140.322
L220.191 140.883
L220.512 141.353
L221.003 141.64
L221.569 141.691
L222.103 141.496
L222.503 141.092
L222.693 140.555
L222.636 139.99
L222.343 139.502
L221.87 139.186
L221.308 139.101
L220.763 139.264
L220.34 139.644
L220.119 140.168
L220.142 140.736
L220.405 141.24
L220.858 141.584
L221.414 141.702
L221.967 141.572
L222.413 141.218
L222.665 140.709
L222.676 140.14
L222.443 139.621
L222.012 139.251
L221.464 139.1
L220.904 139.196
L220.438 139.523
L220.156 140.016
L220.111 140.583
L220.312 141.115
L220.72 141.511
L221.258 141.694
L221.824 141.631
L222.308 141.333
L222.619 140.857
L222.698 140.294
L222.529 139.751
L222.145 139.332
L221.619 139.117
L221.051 139.146
L220.55 139.414
L220.211 139.87
L220.098 140.428
L220.234 140.98
L220.593 141.421
L221.105 141.668
L221.674 141.673
L222.19 141.435
L222.556 141
L222.701 140.45
L222.598 139.891
L222.267 139.429
L221.77 139.152
L221.203 139.113
L220.673 139.32
L220.282 139.732
L220.104 140.272
L220.173 140.837
L220.476 141.318
L220.956 141.624
L221.52 141.696
L222.061 141.522
L222.476 141.133
L222.686 140.605
L222.651 140.037
L222.377 139.539
L221.917 139.205
L221.358 139.099
L220.808 139.241
L220.37 139.604
L220.129 140.119
L220.13 140.687
L220.374 141.201
L220.813 141.562
L221.364 141.702
L221.922 141.593
L222.381 141.257
L222.652 140.757
L222.685 140.189
L222.473 139.662
L222.056 139.275
L221.514 139.103
L220.95 139.178
L220.472 139.486
L220.171 139.969
L220.105 140.533
L220.285 141.073
L220.678 141.484
L221.209 141.688
L221.776 141.647
L222.271 141.367
L222.601 140.904
L222.701 140.344
L222.553 139.795
L222.185 139.361
L221.668 139.126
L221.099 139.133
L220.588 139.382
L220.232 139.825
L220.098 140.378
L220.213 140.935
L220.554 141.39
L221.056 141.656
L221.624 141.683
L222.15 141.465
L222.532 141.044
L222.698 140.5
L222.617 139.937
L222.304 139.463
L221.818 139.167
L221.253 139.106
L220.715 139.293
L220.309 139.69
L220.11 140.223
L220.158 140.789
L220.442 141.282
L220.909 141.606
L221.47 141.7
L222.017 141.546
L222.447 141.174
L222.677 140.654
L222.664 140.086
L222.409 139.577
L221.962 139.226
L221.408 139.098
L220.853 139.219
L220.401 139.565
L220.141 140.07
L220.12 140.638
L220.344 141.161
L220.769 141.539
L221.314 141.699
L221.876 141.612
L222.347 141.294
L222.637 140.805
L222.692 140.239
L222.5 139.704
L222.098 139.301
L221.564 139.108
L220.997 139.162
L220.508 139.451
L220.189 139.922
L220.101 140.484
L220.26 141.029
L220.637 141.455
L221.16 141.68
L221.728 141.66
L222.234 141.4
L222.58 140.95
L222.702 140.394
L222.575 139.84
L222.225 139.392
L221.717 139.137
L221.148 139.123
L220.628 139.352
L220.255 139.781
L220.1 140.328
L220.193 140.889
L220.517 141.356
L221.009 141.642
L221.575 141.69
L222.108 141.493
L222.506 141.087
L222.693 140.55
L222.634 139.984
L222.339 139.498
L221.865 139.184
L221.302 139.102
L220.758 139.267
L220.337 139.648
L220.118 140.173
L220.144 140.741
L220.409 141.244
L220.863 141.586
L221.256 141.694
L221.256 141.694" style="fill:none;stroke:#008000;stroke-linecap:square;"/>
   </g>
   <g id="matplotlib.axis_1">
    <g id="xtick_1">
     <g id="line2d_3">
      <path clip-path="url(#pf805d1d729)" d="
M109.8 252
L109.8 28.8" style="fill:none;stroke:#000000;stroke-dasharray:1.000000,3.000000;stroke-dashoffset:0.0;stroke-width:0.5;"/>
     </g>
     <g id="line2d_4">
      <defs>
       <path d="
M0 0
L0 -4" id="m93b0483c22" style="stroke:#000000;stroke-width:0.5;"/>
      </defs>
      <g>
       <use style="stroke:#000000;stroke-width:0.5;" x="109.8" xlink:href="#m93b0483c22" y="252.0"/>
      </g>
     </g>
     <g id="line2d_5">
      <defs>
       <path d="
M0 0
L0 4" id="m741efc42ff" style="stroke:#000000;stroke-width:0.5;"/>
      </defs>
      <g>
       <use style="stroke:#000000;stroke-width:0.5;" x="109.8" xlink:href="#m741efc42ff" y="28.8"/>
      </g>
     </g>
     <g id="text_1">
      <!-- −600 -->
      <defs>
       <path d="
M10.5938 35.5
L73.1875 35.5
L73.1875 27.2031
L10.5938 27.2031
z
" id="BitstreamVeraSans-Roman-2212"/>
       <path d="
M31.7812 66.4062
Q24.1719 66.4062 20.3281 58.9062
Q16.5 51.4219 16.5 36.375
Q16.5 21.3906 20.3281 13.8906
Q24.1719 6.39062 31.7812 6.39062
Q39.4531 6.39062 43.2812 13.8906
Q47.125 21.3906 47.125 36.375
Q47.125 51.4219 43.2812 58.9062
Q39.4531 66.4062 31.7812 66.4062
M31.7812 74.2188
Q44.0469 74.2188 50.5156 64.5156
Q56.9844 54.8281 56.9844 36.375
Q56.9844 17.9688 50.5156 8.26562
Q44.0469 -1.42188 31.7812 -1.42188
Q19.5312 -1.42188 13.0625 8.26562
Q6.59375 17.9688 6.59375 36.375
Q6.59375 54.8281 13.0625 64.5156
Q19.5312 74.2188 31.7812 74.2188" id="BitstreamVeraSans-Roman-30"/>
       <path d="
M33.0156 40.375
Q26.375 40.375 22.4844 35.8281
Q18.6094 31.2969 18.6094 23.3906
Q18.6094 15.5312 22.4844 10.9531
Q26.375 6.39062 33.0156 6.39062
Q39.6562 6.39062 43.5312 10.9531
Q47.4062 15.5312 47.4062 23.3906
Q47.4062 31.2969 43.5312 35.8281
Q39.6562 40.375 33.0156 40.375
M52.5938 71.2969
L52.5938 62.3125
Q48.875 64.0625 45.0938 64.9844
Q41.3125 65.9219 37.5938 65.9219
Q27.8281 65.9219 22.6719 59.3281
Q17.5312 52.7344 16.7969 39.4062
Q19.6719 43.6562 24.0156 45.9219
Q28.375 48.1875 33.5938 48.1875
Q44.5781 48.1875 50.9531 41.5156
Q57.3281 34.8594 57.3281 23.3906
Q57.3281 12.1562 50.6875 5.35938
Q44.0469 -1.42188 33.0156 -1.42188
Q20.3594 -1.42188 13.6719 8.26562
Q6.98438 17.9688 6.98438 36.375
Q6.98438 53.6562 15.1875 63.9375
Q23.3906 74.2188 37.2031 74.2188
Q40.9219 74.2188 44.7031 73.4844
Q48.4844 72.75 52.5938 71.2969" id="BitstreamVeraSans-Roman-36"/>
      </defs>
      <g transform="translate(96.928125 263.5984375)scale(0.1 -0.1)">
       <use xlink:href="#BitstreamVeraSans-Roman-2212"/>
       <use x="83.7890625" xlink:href="#BitstreamVeraSans-Roman-36"/>
       <use x="147.412109375" xlink:href="#BitstreamVeraSans-Roman-30"/>
       <use x="211.03515625" xlink:href="#BitstreamVeraSans-Roman-30"/>
      </g>
     </g>
    </g>
    <g id="xtick_2">
     <g id="line2d_6">
      <path clip-path="url(#pf805d1d729)" d="
M147 252
L147 28.8" style="fill:none;stroke:#000000;stroke-dasharray:1.000000,3.000000;stroke-dashoffset:0.0;stroke-width:0.5;"/>
     </g>
     <g id="line2d_7">
      <g>
       <use style="stroke:#000000;stroke-width:0.5;" x="147.0" xlink:href="#m93b0483c22" y="252.0"/>
      </g>
     </g>
     <g id="line2d_8">
      <g>
       <use style="stroke:#000000;stroke-width:0.5;" x="147.0" xlink:href="#m741efc42ff" y="28.8"/>
      </g>
     </g>
     <g id="text_2">
      <!-- −400 -->
      <defs>
       <path d="
M37.7969 64.3125
L12.8906 25.3906
L37.7969 25.3906
z

M35.2031 72.9062
L47.6094 72.9062
L47.6094 25.3906
L58.0156 25.3906
L58.0156 17.1875
L47.6094 17.1875
L47.6094 0
L37.7969 0
L37.7969 17.1875
L4.89062 17.1875
L4.89062 26.7031
z
" id="BitstreamVeraSans-Roman-34"/>
      </defs>
      <g transform="translate(134.128125 263.5984375)scale(0.1 -0.1)">
       <use xlink:href="#BitstreamVeraSans-Roman-2212"/>
       <use x="83.7890625" xlink:href="#BitstreamVeraSans-Roman-34"/>
       <use x="147.412109375" xlink:href="#BitstreamVeraSans-Roman-30"/>
       <use x="211.03515625" xlink:href="#BitstreamVeraSans-Roman-30"/>
      </g>
     </g>
    </g>
    <g id="xtick_3">
     <g id="line2d_9">
      <path clip-path="url(#pf805d1d729)" d="
M184.2 252
L184.2 28.8" style="fill:none;stroke:#000000;stroke-dasharray:1.000000,3.000000;stroke-dashoffset:0.0;stroke-width:0.5;"/>
     </g>
     <g id="line2d_10">
      <g>
       <use style="stroke:#000000;stroke-width:0.5;" x="184.2" xlink:href="#m93b0483c22" y="252.0"/>
      </g>
     </g>
     <g id="line2d_11">
      <g>
       <use style="stroke:#000000;stroke-width:0.5;" x="184.2" xlink:href="#m741efc42ff" y="28.8"/>
      </g>
     </g>
     <g id="text_3">
      <!-- −200 -->
      <defs>
       <path d="
M19.1875 8.29688
L53.6094 8.29688
L53.6094 0
L7.32812 0
L7.32812 8.29688
Q12.9375 14.1094 22.625 23.8906
Q32.3281 33.6875 34.8125 36.5312
Q39.5469 41.8438 41.4219 45.5312
Q43.3125 49.2188 43.3125 52.7812
Q43.3125 58.5938 39.2344 62.25
Q35.1562 65.9219 28.6094 65.9219
Q23.9688 65.9219 18.8125 64.3125
Q13.6719 62.7031 7.8125 59.4219
L7.8125 69.3906
Q13.7656 71.7812 18.9375 73
Q24.125 74.2188 28.4219 74.2188
Q39.75 74.2188 46.4844 68.5469
Q53.2188 62.8906 53.2188 53.4219
Q53.2188 48.9219 51.5312 44.8906
Q49.8594 40.875 45.4062 35.4062
Q44.1875 33.9844 37.6406 27.2188
Q31.1094 20.4531 19.1875 8.29688" id="BitstreamVeraSans-Roman-32"/>
      </defs>
      <g transform="translate(171.328125 263.5984375)scale(0.1 -0.1)">
       <use xlink:href="#BitstreamVeraSans-Roman-2212"/>
       <use x="83.7890625" xlink:href="#BitstreamVeraSans-Roman-32"/>
       <use x="147.412109375" xlink:href="#BitstreamVeraSans-Roman-30"/>
       <use x="211.03515625" xlink:href="#BitstreamVeraSans-Roman-30"/>
      </g>
     </g>
    </g>
    <g id="xtick_4">
     <g id="line2d_12">
      <path clip-path="url(#pf805d1d729)" d="
M221.4 252
L221.4 28.8" style="fill:none;stroke:#000000;stroke-dasharray:1.000000,3.000000;stroke-dashoffset:0.0;stroke-width:0.5;"/>
     </g>
     <g id="line2d_13">
      <g>
       <use style="stroke:#000000;stroke-width:0.5;" x="221.4" xlink:href="#m93b0483c22" y="252.0"/>
      </g>
     </g>
     <g id="line2d_14">
      <g>
       <use style="stroke:#000000;stroke-width:0.5;" x="221.4" xlink:href="#m741efc42ff" y="28.8"/>
      </g>
     </g>
     <g id="text_4">
      <!-- 0 -->
      <g transform="translate(218.88046875 263.5984375)scale(0.1 -0.1)">
       <use xlink:href="#BitstreamVeraSans-Roman-30"/>
      </g>
     </g>
    </g>
    <g id="xtick_5">
     <g id="line2d_15">
      <path clip-path="url(#pf805d1d729)" d="
M258.6 252
L258.6 28.8" style="fill:none;stroke:#000000;stroke-dasharray:1.000000,3.000000;stroke-dashoffset:0.0;stroke-width:0.5;"/>
     </g>
     <g id="line2d_16">
      <g>
       <use style="stroke:#000000;stroke-width:0.5;" x="258.6" xlink:href="#m93b0483c22" y="252.0"/>
      </g>
     </g>
     <g id="line2d_17">
      <g>
       <use style="stroke:#000000;stroke-width:0.5;" x="258.6" xlink:href="#m741efc42ff" y="28.8"/>
      </g>
     </g>
     <g id="text_5">
      <!-- 200 -->
      <g transform="translate(249.7546875 263.5984375)scale(0.1 -0.1)">
       <use xlink:href="#BitstreamVeraSans-Roman-32"/>
       <use x="63.623046875" xlink:href="#BitstreamVeraSans-Roman-30"/>
       <use x="127.24609375" xlink:href="#BitstreamVeraSans-Roman-30"/>
      </g>
     </g>
    </g>
    <g id="xtick_6">
     <g id="line2d_18">
      <path clip-path="url(#pf805d1d729)" d="
M295.8 252
L295.8 28.8" style="fill:none;stroke:#000000;stroke-dasharray:1.000000,3.000000;stroke-dashoffset:0.0;stroke-width:0.5;"/>
     </g>
     <g id="line2d_19">
      <g>
       <use style="stroke:#000000;stroke-width:0.5;" x="295.8" xlink:href="#m93b0483c22" y="252.0"/>
      </g>
     </g>
     <g id="line2d_20">
      <g>
       <use style="stroke:#000000;stroke-width:0.5;" x="295.8" xlink:href="#m741efc42ff" y="28.8"/>
      </g>
     </g>
     <g id="text_6">
      <!-- 400 -->
      <g transform="translate(286.8328125 263.5984375)scale(0.1 -0.1)">
       <use xlink:href="#BitstreamVeraSans-Roman-34"/>
       <use x="63.623046875" xlink:href="#BitstreamVeraSans-Roman-30"/>
       <use x="127.24609375" xlink:href="#BitstreamVeraSans-Roman-30"/>
      </g>
     </g>
    </g>
    <g id="xtick_7">
     <g id="line2d_21">
      <path clip-path="url(#pf805d1d729)" d="
M333 252
L333 28.8" style="fill:none;stroke:#000000;stroke-dasharray:1.000000,3.000000;stroke-dashoffset:0.0;stroke-width:0.5;"/>
     </g>
     <g id="line2d_22">
      <g>
       <use style="stroke:#000000;stroke-width:0.5;" x="333.0" xlink:href="#m93b0483c22" y="252.0"/>
      </g>
     </g>
     <g id="line2d_23">
      <g>
       <use style="stroke:#000000;stroke-width:0.5;" x="333.0" xlink:href="#m741efc42ff" y="28.8"/>
      </g>
     </g>
     <g id="text_7">
      <!-- 600 -->
      <g transform="translate(324.1375 263.5984375)scale(0.1 -0.1)">
       <use xlink:href="#BitstreamVeraSans-Roman-36"/>
       <use x="63.623046875" xlink:href="#BitstreamVeraSans-Roman-30"/>
       <use x="127.24609375" xlink:href="#BitstreamVeraSans-Roman-30"/>
      </g>
     </g>
    </g>
    <g id="text_8">
     <!-- y [m] -->
     <defs>
      <path id="BitstreamVeraSans-Roman-20"/>
      <path d="
M8.59375 75.9844
L29.2969 75.9844
L29.2969 69
L17.5781 69
L17.5781 -6.20312
L29.2969 -6.20312
L29.2969 -13.1875
L8.59375 -13.1875
z
" id="BitstreamVeraSans-Roman-5b"/>
      <path d="
M30.4219 75.9844
L30.4219 -13.1875
L9.71875 -13.1875
L9.71875 -6.20312
L21.3906 -6.20312
L21.3906 69
L9.71875 69
L9.71875 75.9844
z
" id="BitstreamVeraSans-Roman-5d"/>
      <path d="
M52 44.1875
Q55.375 50.25 60.0625 53.125
Q64.75 56 71.0938 56
Q79.6406 56 84.2812 50.0156
Q88.9219 44.0469 88.9219 33.0156
L88.9219 0
L79.8906 0
L79.8906 32.7188
Q79.8906 40.5781 77.0938 44.375
Q74.3125 48.1875 68.6094 48.1875
Q61.625 48.1875 57.5625 43.5469
Q53.5156 38.9219 53.5156 30.9062
L53.5156 0
L44.4844 0
L44.4844 32.7188
Q44.4844 40.625 41.7031 44.4062
Q38.9219 48.1875 33.1094 48.1875
Q26.2188 48.1875 22.1562 43.5312
Q18.1094 38.875 18.1094 30.9062
L18.1094 0
L9.07812 0
L9.07812 54.6875
L18.1094 54.6875
L18.1094 46.1875
Q21.1875 51.2188 25.4844 53.6094
Q29.7812 56 35.6875 56
Q41.6562 56 45.8281 52.9688
Q50 49.9531 52 44.1875" id="BitstreamVeraSans-Roman-6d"/>
      <path d="
M32.1719 -5.07812
Q28.375 -14.8438 24.75 -17.8125
Q21.1406 -20.7969 15.0938 -20.7969
L7.90625 -20.7969
L7.90625 -13.2812
L13.1875 -13.2812
Q16.8906 -13.2812 18.9375 -11.5156
Q21 -9.76562 23.4844 -3.21875
L25.0938 0.875
L2.98438 54.6875
L12.5 54.6875
L29.5938 11.9219
L46.6875 54.6875
L56.2031 54.6875
z
" id="BitstreamVeraSans-Roman-79"/>
     </defs>
     <g transform="translate(208.509375 278.2765625)scale(0.1 -0.1)">
      <use xlink:href="#BitstreamVeraSans-Roman-79"/>
      <use x="59.1796875" xlink:href="#BitstreamVeraSans-Roman-20"/>
      <use x="90.966796875" xlink:href="#BitstreamVeraSans-Roman-5b"/>
      <use x="129.98046875" xlink:href="#BitstreamVeraSans-Roman-6d"/>
      <use x="227.392578125" xlink:href="#BitstreamVeraSans-Roman-5d"/>
     </g>
    </g>
   </g>
   <g id="matplotlib.axis_2">
    <g id="ytick_1">
     <g id="line2d_24">
      <path clip-path="url(#pf805d1d729)" d="
M109.8 252
L333 252" style="fill:none;stroke:#000000;stroke-dasharray:1.000000,3.000000;stroke-dashoffset:0.0;stroke-width:0.5;"/>
     </g>
     <g id="line2d_25">
      <defs>
       <path d="
M0 0
L4 0" id="m728421d6d4" style="stroke:#000000;stroke-width:0.5;"/>
      </defs>
      <g>
       <use style="stroke:#000000;stroke-width:0.5;" x="109.8" xlink:href="#m728421d6d4" y="252.0"/>
      </g>
     </g>
     <g id="line2d_26">
      <defs>
       <path d="
M0 0
L-4 0" id="mcb0005524f" style="stroke:#000000;stroke-width:0.5;"/>
      </defs>
      <g>
       <use style="stroke:#000000;stroke-width:0.5;" x="333.0" xlink:href="#mcb0005524f" y="252.0"/>
      </g>
     </g>
     <g id="text_9">
      <!-- −600 -->
      <g transform="translate(80.05625 254.759375)scale(0.1 -0.1)">
       <use xlink:href="#BitstreamVeraSans-Roman-2212"/>
       <use x="83.7890625" xlink:href="#BitstreamVeraSans-Roman-36"/>
       <use x="147.412109375" xlink:href="#BitstreamVeraSans-Roman-30"/>
       <use x="211.03515625" xlink:href="#BitstreamVeraSans-Roman-30"/>
      </g>
     </g>
    </g>
    <g id="ytick_2">
     <g id="line2d_27">
      <path clip-path="url(#pf805d1d729)" d="
M109.8 214.8
L333 214.8" style="fill:none;stroke:#000000;stroke-dasharray:1.000000,3.000000;stroke-dashoffset:0.0;stroke-width:0.5;"/>
     </g>
     <g id="line2d_28">
      <g>
       <use style="stroke:#000000;stroke-width:0.5;" x="109.8" xlink:href="#m728421d6d4" y="214.8"/>
      </g>
     </g>
     <g id="line2d_29">
      <g>
       <use style="stroke:#000000;stroke-width:0.5;" x="333.0" xlink:href="#mcb0005524f" y="214.8"/>
      </g>
     </g>
     <g id="text_10">
      <!-- −400 -->
      <g transform="translate(80.05625 217.559375)scale(0.1 -0.1)">
       <use xlink:href="#BitstreamVeraSans-Roman-2212"/>
       <use x="83.7890625" xlink:href="#BitstreamVeraSans-Roman-34"/>
       <use x="147.412109375" xlink:href="#BitstreamVeraSans-Roman-30"/>
       <use x="211.03515625" xlink:href="#BitstreamVeraSans-Roman-30"/>
      </g>
     </g>
    </g>
    <g id="ytick_3">
     <g id="line2d_30">
      <path clip-path="url(#pf805d1d729)" d="
M109.8 177.6
L333 177.6" style="fill:none;stroke:#000000;stroke-dasharray:1.000000,3.000000;stroke-dashoffset:0.0;stroke-width:0.5;"/>
     </g>
     <g id="line2d_31">
      <g>
       <use style="stroke:#000000;stroke-width:0.5;" x="109.8" xlink:href="#m728421d6d4" y="177.6"/>
      </g>
     </g>
     <g id="line2d_32">
      <g>
       <use style="stroke:#000000;stroke-width:0.5;" x="333.0" xlink:href="#mcb0005524f" y="177.6"/>
      </g>
     </g>
     <g id="text_11">
      <!-- −200 -->
      <g transform="translate(80.05625 180.359375)scale(0.1 -0.1)">
       <use xlink:href="#BitstreamVeraSans-Roman-2212"/>
       <use x="83.7890625" xlink:href="#BitstreamVeraSans-Roman-32"/>
       <use x="147.412109375" xlink:href="#BitstreamVeraSans-Roman-30"/>
       <use x="211.03515625" xlink:href="#BitstreamVeraSans-Roman-30"/>
      </g>
     </g>
    </g>
    <g id="ytick_4">
     <g id="line2d_33">
      <path clip-path="url(#pf805d1d729)" d="
M109.8 140.4
L333 140.4" style="fill:none;stroke:#000000;stroke-dasharray:1.000000,3.000000;stroke-dashoffset:0.0;stroke-width:0.5;"/>
     </g>
     <g id="line2d_34">
      <g>
       <use style="stroke:#000000;stroke-width:0.5;" x="109.8" xlink:href="#m728421d6d4" y="140.4"/>
      </g>
     </g>
     <g id="line2d_35">
      <g>
       <use style="stroke:#000000;stroke-width:0.5;" x="333.0" xlink:href="#mcb0005524f" y="140.4"/>
      </g>
     </g>
     <g id="text_12">
      <!-- 0 -->
      <g transform="translate(100.7609375 143.159375)scale(0.1 -0.1)">
       <use xlink:href="#BitstreamVeraSans-Roman-30"/>
      </g>
     </g>
    </g>
    <g id="ytick_5">
     <g id="line2d_36">
      <path clip-path="url(#pf805d1d729)" d="
M109.8 103.2
L333 103.2" style="fill:none;stroke:#000000;stroke-dasharray:1.000000,3.000000;stroke-dashoffset:0.0;stroke-width:0.5;"/>
     </g>
     <g id="line2d_37">
      <g>
       <use style="stroke:#000000;stroke-width:0.5;" x="109.8" xlink:href="#m728421d6d4" y="103.2"/>
      </g>
     </g>
     <g id="line2d_38">
      <g>
       <use style="stroke:#000000;stroke-width:0.5;" x="333.0" xlink:href="#mcb0005524f" y="103.2"/>
      </g>
     </g>
     <g id="text_13">
      <!-- 200 -->
      <g transform="translate(88.109375 105.959375)scale(0.1 -0.1)">
       <use xlink:href="#BitstreamVeraSans-Roman-32"/>
       <use x="63.623046875" xlink:href="#BitstreamVeraSans-Roman-30"/>
       <use x="127.24609375" xlink:href="#BitstreamVeraSans-Roman-30"/>
      </g>
     </g>
    </g>
    <g id="ytick_6">
     <g id="line2d_39">
      <path clip-path="url(#pf805d1d729)" d="
M109.8 66
L333 66" style="fill:none;stroke:#000000;stroke-dasharray:1.000000,3.000000;stroke-dashoffset:0.0;stroke-width:0.5;"/>
     </g>
     <g id="line2d_40">
      <g>
       <use style="stroke:#000000;stroke-width:0.5;" x="109.8" xlink:href="#m728421d6d4" y="66.0"/>
      </g>
     </g>
     <g id="line2d_41">
      <g>
       <use style="stroke:#000000;stroke-width:0.5;" x="333.0" xlink:href="#mcb0005524f" y="66.0"/>
      </g>
     </g>
     <g id="text_14">
      <!-- 400 -->
      <g transform="translate(87.865625 68.759375)scale(0.1 -0.1)">
       <use xlink:href="#BitstreamVeraSans-Roman-34"/>
       <use x="63.623046875" xlink:href="#BitstreamVeraSans-Roman-30"/>
       <use x="127.24609375" xlink:href="#BitstreamVeraSans-Roman-30"/>
      </g>
     </g>
    </g>
    <g id="ytick_7">
     <g id="line2d_42">
      <path clip-path="url(#pf805d1d729)" d="
M109.8 28.8
L333 28.8" style="fill:none;stroke:#000000;stroke-dasharray:1.000000,3.000000;stroke-dashoffset:0.0;stroke-width:0.5;"/>
     </g>
     <g id="line2d_43">
      <g>
       <use style="stroke:#000000;stroke-width:0.5;" x="109.8" xlink:href="#m728421d6d4" y="28.8"/>
      </g>
     </g>
     <g id="line2d_44">
      <g>
       <use style="stroke:#000000;stroke-width:0.5;" x="333.0" xlink:href="#mcb0005524f" y="28.8"/>
      </g>
     </g>
     <g id="text_15">
      <!-- 600 -->
      <g transform="translate(88.075 31.559375)scale(0.1 -0.1)">
       <use xlink:href="#BitstreamVeraSans-Roman-36"/>
       <use x="63.623046875" xlink:href="#BitstreamVeraSans-Roman-30"/>
       <use x="127.24609375" xlink:href="#BitstreamVeraSans-Roman-30"/>
      </g>
     </g>
    </g>
    <g id="text_16">
     <!-- x [m] -->
     <defs>
      <path d="
M54.8906 54.6875
L35.1094 28.0781
L55.9062 0
L45.3125 0
L29.3906 21.4844
L13.4844 0
L2.875 0
L24.125 28.6094
L4.6875 54.6875
L15.2812 54.6875
L29.7812 35.2031
L44.2812 54.6875
z
" id="BitstreamVeraSans-Roman-78"/>
     </defs>
     <g transform="translate(72.9765625 153.290625)rotate(-90.0)scale(0.1 -0.1)">
      <use xlink:href="#BitstreamVeraSans-Roman-78"/>
      <use x="59.1796875" xlink:href="#BitstreamVeraSans-Roman-20"/>
      <use x="90.966796875" xlink:href="#BitstreamVeraSans-Roman-5b"/>
      <use x="129.98046875" xlink:href="#BitstreamVeraSans-Roman-6d"/>
      <use x="227.392578125" xlink:href="#BitstreamVeraSans-Roman-5d"/>
     </g>
    </g>
   </g>
   <g id="patch_3">
    <path d="
M109.8 28.8
L333 28.8" style="fill:none;stroke:#000000;"/>
   </g>
   <g id="patch_4">
    <path d="
M333 252
L333 28.8" style="fill:none;stroke:#000000;"/>
   </g>
   <g id="patch_5">
    <path d="
M109.8 252
L333 252" style="fill:none;stroke:#000000;"/>
   </g>
   <g id="patch_6">
    <path d="
M109.8 252
L109.8 28.8" style="fill:none;stroke:#000000;"/>
   </g>
  </g>
 </g>
 <defs>
  <clipPath id="pf805d1d729">
   <rect height="223.2" width="223.2" x="109.8" y="28.8"/>
  </clipPath>
 </defs>
</svg>
